<?xml version="1.0" encoding="UTF-8" standalone="no"?>
<!DOCTYPE svg PUBLIC "-//W3C//DTD SVG 1.1//EN"
 "http://www.w3.org/Graphics/SVG/1.1/DTD/svg11.dtd">
<!-- Generated by graphviz version 14.1.2 (20260124.0452)
 -->
<!-- Title: OSforGFF Pages: 1 -->
<svg width="5214pt" height="1147pt"
 viewBox="0.00 0.00 5214.00 1147.00" xmlns="http://www.w3.org/2000/svg" xmlns:xlink="http://www.w3.org/1999/xlink">
<g id="graph0" class="graph" transform="scale(1 1) rotate(0) translate(4 1142.73)">
<title>OSforGFF</title>
<polygon fill="white" stroke="none" points="-4,4 -4,-1142.73 5209.57,-1142.73 5209.57,4 -4,4"/>
<g id="clust1" class="cluster">
<title>cluster_General</title>
<polygon fill="#f0f0f0" stroke="#999999" points="3899,-763.44 3899,-1130.73 4724,-1130.73 4724,-763.44 3899,-763.44"/>
<text xml:space="preserve" text-anchor="middle" x="4311.5" y="-770.64" font-family="Times,serif" font-size="14.00">General</text>
</g>
<g id="clust2" class="cluster">
<title>cluster_Spacetime</title>
<polygon fill="#dce6f0" stroke="#999999" points="3080,-455.08 3080,-839.94 3651,-839.94 3651,-455.08 3080,-455.08"/>
<text xml:space="preserve" text-anchor="middle" x="3365.5" y="-462.28" font-family="Times,serif" font-size="14.00">Spacetime</text>
</g>
<g id="clust3" class="cluster">
<title>cluster_Covariance</title>
<polygon fill="#d0f0d0" stroke="#999999" points="4018,-352.29 4018,-728.36 4150,-728.36 4150,-352.29 4018,-352.29"/>
<text xml:space="preserve" text-anchor="middle" x="4084" y="-359.49" font-family="Times,serif" font-size="14.00">Covariance</text>
</g>
<g id="clust4" class="cluster">
<title>cluster_Schwinger</title>
<polygon fill="#d0f0f0" stroke="#999999" points="1732,-549.08 1732,-728.36 1933,-728.36 1933,-549.08 1732,-549.08"/>
<text xml:space="preserve" text-anchor="middle" x="1832.5" y="-556.28" font-family="Times,serif" font-size="14.00">Schwinger</text>
</g>
<g id="clust5" class="cluster">
<title>cluster_Measure</title>
<polygon fill="#f0dcd0" stroke="#999999" points="688,-352.29 688,-848.73 919,-848.73 919,-352.29 688,-352.29"/>
<text xml:space="preserve" text-anchor="middle" x="803.5" y="-359.49" font-family="Times,serif" font-size="14.00">Measure</text>
</g>
<g id="clust6" class="cluster">
<title>cluster_OS</title>
<polygon fill="#f0dce6" stroke="#999999" points="2421,-61.5 2421,-531.58 3072,-531.58 3072,-61.5 2421,-61.5"/>
<text xml:space="preserve" text-anchor="middle" x="2746.5" y="-68.7" font-family="Times,serif" font-size="14.00">OS Axioms</text>
</g>
<!-- FunctionalAnalysis -->
<g id="node1" class="node">
<title>FunctionalAnalysis</title>
<polygon fill="white" stroke="black" points="4228.75,-831.94 4127.25,-831.94 4127.25,-795.94 4228.75,-795.94 4228.75,-831.94"/>
<text xml:space="preserve" text-anchor="middle" x="4178" y="-810.24" font-family="Times,serif" font-size="11.00">FunctionalAnalysis</text>
</g>
<!-- FrobeniusPositivity -->
<g id="node2" class="node">
<title>FrobeniusPositivity</title>
<polygon fill="white" stroke="black" points="4095.38,-1122.73 3994.62,-1122.73 3994.62,-1086.73 4095.38,-1086.73 4095.38,-1122.73"/>
<text xml:space="preserve" text-anchor="middle" x="4045" y="-1101.03" font-family="Times,serif" font-size="11.00">FrobeniusPositivity</text>
</g>
<!-- SchurProduct -->
<g id="node3" class="node">
<title>SchurProduct</title>
<polygon fill="white" stroke="black" points="4082.62,-1028.73 4007.38,-1028.73 4007.38,-992.73 4082.62,-992.73 4082.62,-1028.73"/>
<text xml:space="preserve" text-anchor="middle" x="4045" y="-1007.03" font-family="Times,serif" font-size="11.00">SchurProduct</text>
</g>
<!-- SchurProduct&#45;&gt;FrobeniusPositivity -->
<g id="edge1" class="edge">
<title>SchurProduct&#45;&gt;FrobeniusPositivity</title>
<path fill="none" stroke="#666666" d="M4045,-1029.03C4045,-1042.01 4045,-1060.06 4045,-1075.17"/>
<polygon fill="#666666" stroke="#666666" points="4041.5,-1074.99 4045,-1084.99 4048.5,-1074.99 4041.5,-1074.99"/>
</g>
<!-- HadamardExp -->
<g id="node4" class="node">
<title>HadamardExp</title>
<polygon fill="white" stroke="black" points="3986.88,-934.73 3907.12,-934.73 3907.12,-898.73 3986.88,-898.73 3986.88,-934.73"/>
<text xml:space="preserve" text-anchor="middle" x="3947" y="-913.03" font-family="Times,serif" font-size="11.00">HadamardExp</text>
</g>
<!-- HadamardExp&#45;&gt;SchurProduct -->
<g id="edge2" class="edge">
<title>HadamardExp&#45;&gt;SchurProduct</title>
<path fill="none" stroke="#666666" d="M3965.43,-935.03C3980.35,-949.04 4001.57,-968.95 4018.34,-984.7"/>
<polygon fill="#666666" stroke="#666666" points="4015.86,-987.17 4025.55,-991.46 4020.65,-982.07 4015.86,-987.17"/>
</g>
<!-- PositiveDefinite -->
<g id="node5" class="node">
<title>PositiveDefinite</title>
<polygon fill="white" stroke="black" points="4104,-934.73 4016,-934.73 4016,-898.73 4104,-898.73 4104,-934.73"/>
<text xml:space="preserve" text-anchor="middle" x="4060" y="-913.03" font-family="Times,serif" font-size="11.00">PositiveDefinite</text>
</g>
<!-- GaussianRBF -->
<g id="node6" class="node">
<title>GaussianRBF</title>
<polygon fill="white" stroke="black" points="3985.12,-831.94 3906.88,-831.94 3906.88,-795.94 3985.12,-795.94 3985.12,-831.94"/>
<text xml:space="preserve" text-anchor="middle" x="3946" y="-810.24" font-family="Times,serif" font-size="11.00">GaussianRBF</text>
</g>
<!-- GaussianRBF&#45;&gt;SchurProduct -->
<g id="edge5" class="edge">
<title>GaussianRBF&#45;&gt;SchurProduct</title>
<path fill="none" stroke="#666666" d="M3971.35,-832.35C3979.94,-837.92 3989.71,-843.88 3999,-848.73 4050.22,-875.47 4086.95,-850.65 4119,-898.73 4138.88,-928.55 4107.69,-962.88 4079.9,-985.37"/>
<polygon fill="#666666" stroke="#666666" points="4078.01,-982.4 4072.26,-991.3 4082.3,-987.93 4078.01,-982.4"/>
</g>
<!-- GaussianRBF&#45;&gt;HadamardExp -->
<g id="edge3" class="edge">
<title>GaussianRBF&#45;&gt;HadamardExp</title>
<path fill="none" stroke="#666666" d="M3946.17,-832.04C3946.32,-847.1 3946.54,-869.33 3946.72,-887.1"/>
<polygon fill="#666666" stroke="#666666" points="3943.22,-887.07 3946.81,-897.03 3950.22,-887 3943.22,-887.07"/>
</g>
<!-- GaussianRBF&#45;&gt;PositiveDefinite -->
<g id="edge4" class="edge">
<title>GaussianRBF&#45;&gt;PositiveDefinite</title>
<path fill="none" stroke="#666666" d="M3965.6,-832.27C3983.87,-848.42 4011.32,-872.69 4031.92,-890.9"/>
<polygon fill="#666666" stroke="#666666" points="4029.33,-893.29 4039.14,-897.29 4033.97,-888.04 4029.33,-893.29"/>
</g>
<!-- FourierTransforms -->
<g id="node7" class="node">
<title>FourierTransforms</title>
<polygon fill="white" stroke="black" points="4356.62,-831.94 4257.38,-831.94 4257.38,-795.94 4356.62,-795.94 4356.62,-831.94"/>
<text xml:space="preserve" text-anchor="middle" x="4307" y="-810.24" font-family="Times,serif" font-size="11.00">FourierTransforms</text>
</g>
<!-- LaplaceIntegral -->
<g id="node8" class="node">
<title>LaplaceIntegral</title>
<polygon fill="white" stroke="black" points="4472.25,-831.94 4385.75,-831.94 4385.75,-795.94 4472.25,-795.94 4472.25,-831.94"/>
<text xml:space="preserve" text-anchor="middle" x="4429" y="-810.24" font-family="Times,serif" font-size="11.00">LaplaceIntegral</text>
</g>
<!-- BesselFunction -->
<g id="node9" class="node">
<title>BesselFunction</title>
<polygon fill="white" stroke="black" points="4098.12,-831.94 4013.88,-831.94 4013.88,-795.94 4098.12,-795.94 4098.12,-831.94"/>
<text xml:space="preserve" text-anchor="middle" x="4056" y="-810.24" font-family="Times,serif" font-size="11.00">BesselFunction</text>
</g>
<!-- Euclidean -->
<g id="node14" class="node">
<title>Euclidean</title>
<polygon fill="white" stroke="black" points="3408.12,-720.36 3347.88,-720.36 3347.88,-684.36 3408.12,-684.36 3408.12,-720.36"/>
<text xml:space="preserve" text-anchor="middle" x="3378" y="-698.66" font-family="Times,serif" font-size="11.00">Euclidean</text>
</g>
<!-- BesselFunction&#45;&gt;Euclidean -->
<g id="edge7" class="edge">
<title>BesselFunction&#45;&gt;Euclidean</title>
<path fill="none" stroke="#666666" d="M4041.82,-795.46C4031.52,-784.15 4016.54,-770.3 4000,-763.44 3887.71,-716.85 3573.27,-752.7 3454,-729.15 3442.52,-726.88 3430.39,-723.33 3419.27,-719.57"/>
<polygon fill="#666666" stroke="#666666" points="3420.58,-716.32 3409.98,-716.3 3418.25,-722.92 3420.58,-716.32"/>
</g>
<!-- QuantitativeDecay -->
<g id="node10" class="node">
<title>QuantitativeDecay</title>
<polygon fill="white" stroke="black" points="4601,-831.94 4501,-831.94 4501,-795.94 4601,-795.94 4601,-831.94"/>
<text xml:space="preserve" text-anchor="middle" x="4551" y="-810.24" font-family="Times,serif" font-size="11.00">QuantitativeDecay</text>
</g>
<!-- SchwartzTranslationDecay -->
<g id="node11" class="node">
<title>SchwartzTranslationDecay</title>
<polygon fill="white" stroke="black" points="4667.75,-934.73 4530.25,-934.73 4530.25,-898.73 4667.75,-898.73 4667.75,-934.73"/>
<text xml:space="preserve" text-anchor="middle" x="4599" y="-913.03" font-family="Times,serif" font-size="11.00">SchwartzTranslationDecay</text>
</g>
<!-- QuantitativeDecay&#45;&gt;SchwartzTranslationDecay -->
<g id="edge6" class="edge">
<title>QuantitativeDecay&#45;&gt;SchwartzTranslationDecay</title>
<path fill="none" stroke="#666666" d="M4559.14,-832.04C4566.49,-847.46 4577.42,-870.41 4585.97,-888.38"/>
<polygon fill="#666666" stroke="#666666" points="4582.71,-889.66 4590.17,-897.18 4589.03,-886.65 4582.71,-889.66"/>
</g>
<!-- L2TimeIntegral -->
<g id="node12" class="node">
<title>L2TimeIntegral</title>
<polygon fill="white" stroke="black" points="4715.88,-831.94 4630.12,-831.94 4630.12,-795.94 4715.88,-795.94 4715.88,-831.94"/>
<text xml:space="preserve" text-anchor="middle" x="4673" y="-810.24" font-family="Times,serif" font-size="11.00">L2TimeIntegral</text>
</g>
<!-- Basic -->
<g id="node13" class="node">
<title>Basic</title>
<polygon fill="lightblue" stroke="black" points="3142,-831.94 3088,-831.94 3088,-795.94 3142,-795.94 3142,-831.94"/>
<text xml:space="preserve" text-anchor="middle" x="3115" y="-810.24" font-family="Times,serif" font-size="11.00">Basic</text>
</g>
<!-- Basic&#45;&gt;FunctionalAnalysis -->
<g id="edge8" class="edge">
<title>Basic&#45;&gt;FunctionalAnalysis</title>
<path fill="none" stroke="#666666" d="M3142.29,-810.76C3243.36,-799.15 3606.12,-759.11 3906.5,-746.3 3991.76,-742.66 4018.41,-716.83 4098.5,-746.3 4120.89,-754.53 4141.27,-772.18 4155.79,-787.39"/>
<polygon fill="#666666" stroke="#666666" points="4152.87,-789.38 4162.21,-794.39 4158.03,-784.65 4152.87,-789.38"/>
</g>
<!-- Euclidean&#45;&gt;Basic -->
<g id="edge9" class="edge">
<title>Euclidean&#45;&gt;Basic</title>
<path fill="none" stroke="#666666" d="M3349.97,-720.71C3344.74,-723.68 3339.27,-726.62 3334,-729.15 3272.39,-758.74 3197.4,-785.56 3153.08,-800.51"/>
<polygon fill="#666666" stroke="#666666" points="3152.04,-797.17 3143.67,-803.66 3154.26,-803.81 3152.04,-797.17"/>
</g>
<!-- DiscreteSymmetry -->
<g id="node15" class="node">
<title>DiscreteSymmetry</title>
<polygon fill="white" stroke="black" points="3580.62,-617.58 3481.38,-617.58 3481.38,-581.58 3580.62,-581.58 3580.62,-617.58"/>
<text xml:space="preserve" text-anchor="middle" x="3531" y="-595.88" font-family="Times,serif" font-size="11.00">DiscreteSymmetry</text>
</g>
<!-- DiscreteSymmetry&#45;&gt;Basic -->
<g id="edge10" class="edge">
<title>DiscreteSymmetry&#45;&gt;Basic</title>
<path fill="none" stroke="#666666" d="M3544.09,-618.06C3562.51,-644.95 3590.95,-696.71 3564,-729.15 3511.78,-792.02 3252.57,-807.97 3153.55,-811.8"/>
<polygon fill="#666666" stroke="#666666" points="3153.67,-808.29 3143.8,-812.15 3153.92,-815.28 3153.67,-808.29"/>
</g>
<!-- DiscreteSymmetry&#45;&gt;Euclidean -->
<g id="edge11" class="edge">
<title>DiscreteSymmetry&#45;&gt;Euclidean</title>
<path fill="none" stroke="#666666" d="M3504.7,-617.9C3479.63,-634.42 3441.69,-659.41 3413.85,-677.74"/>
<polygon fill="#666666" stroke="#666666" points="3412.16,-674.67 3405.73,-683.09 3416.01,-680.52 3412.16,-674.67"/>
</g>
<!-- Decomposition -->
<g id="node16" class="node">
<title>Decomposition</title>
<polygon fill="white" stroke="black" points="3452.38,-617.58 3369.62,-617.58 3369.62,-581.58 3452.38,-581.58 3452.38,-617.58"/>
<text xml:space="preserve" text-anchor="middle" x="3411" y="-595.88" font-family="Times,serif" font-size="11.00">Decomposition</text>
</g>
<!-- Decomposition&#45;&gt;Basic -->
<g id="edge18" class="edge">
<title>Decomposition&#45;&gt;Basic</title>
<path fill="none" stroke="#666666" d="M3419.45,-618.03C3431.08,-644.86 3447.91,-696.55 3423,-729.15 3390.22,-772.04 3228.94,-798.18 3153.74,-808.22"/>
<polygon fill="#666666" stroke="#666666" points="3153.41,-804.73 3143.94,-809.5 3154.31,-811.67 3153.41,-804.73"/>
</g>
<!-- ProdIntegrable -->
<g id="node20" class="node">
<title>ProdIntegrable</title>
<polygon fill="white" stroke="black" points="3549.62,-720.36 3468.38,-720.36 3468.38,-684.36 3549.62,-684.36 3549.62,-720.36"/>
<text xml:space="preserve" text-anchor="middle" x="3509" y="-698.66" font-family="Times,serif" font-size="11.00">ProdIntegrable</text>
</g>
<!-- Decomposition&#45;&gt;ProdIntegrable -->
<g id="edge19" class="edge">
<title>Decomposition&#45;&gt;ProdIntegrable</title>
<path fill="none" stroke="#666666" d="M3427.62,-617.67C3443.25,-633.75 3466.83,-658 3484.59,-676.26"/>
<polygon fill="#666666" stroke="#666666" points="3481.76,-678.37 3491.24,-683.1 3486.78,-673.49 3481.76,-678.37"/>
</g>
<!-- ComplexTestFunction -->
<g id="node17" class="node">
<title>ComplexTestFunction</title>
<polygon fill="white" stroke="black" points="3319,-720.36 3207,-720.36 3207,-684.36 3319,-684.36 3319,-720.36"/>
<text xml:space="preserve" text-anchor="middle" x="3263" y="-698.66" font-family="Times,serif" font-size="11.00">ComplexTestFunction</text>
</g>
<!-- ComplexTestFunction&#45;&gt;Basic -->
<g id="edge12" class="edge">
<title>ComplexTestFunction&#45;&gt;Basic</title>
<path fill="none" stroke="#666666" d="M3239.55,-720.73C3214.65,-739.16 3175.13,-768.42 3147.29,-789.03"/>
<polygon fill="#666666" stroke="#666666" points="3145.51,-785.99 3139.56,-794.76 3149.68,-791.62 3145.51,-785.99"/>
</g>
<!-- PositiveTimeTestFunction -->
<g id="node18" class="node">
<title>PositiveTimeTestFunction</title>
<polygon fill="white" stroke="black" points="3643.38,-523.58 3512.62,-523.58 3512.62,-487.58 3643.38,-487.58 3643.38,-523.58"/>
<text xml:space="preserve" text-anchor="middle" x="3578" y="-501.88" font-family="Times,serif" font-size="11.00">PositiveTimeTestFunction</text>
</g>
<!-- PositiveTimeTestFunction&#45;&gt;Basic -->
<g id="edge13" class="edge">
<title>PositiveTimeTestFunction&#45;&gt;Basic</title>
<path fill="none" stroke="#666666" d="M3593.33,-523.93C3598.76,-531.19 3604.21,-540.03 3607,-549.08 3630.67,-625.75 3649.09,-670.81 3594,-729.15 3533.92,-792.77 3257.07,-808.3 3153.9,-811.9"/>
<polygon fill="#666666" stroke="#666666" points="3153.88,-808.4 3144,-812.23 3154.1,-815.4 3153.88,-808.4"/>
</g>
<!-- PositiveTimeTestFunction&#45;&gt;DiscreteSymmetry -->
<g id="edge14" class="edge">
<title>PositiveTimeTestFunction&#45;&gt;DiscreteSymmetry</title>
<path fill="none" stroke="#666666" d="M3569.16,-523.88C3562.33,-537.24 3552.76,-555.99 3544.91,-571.36"/>
<polygon fill="#666666" stroke="#666666" points="3541.92,-569.5 3540.49,-580 3548.16,-572.69 3541.92,-569.5"/>
</g>
<!-- TimeTranslation -->
<g id="node19" class="node">
<title>TimeTranslation</title>
<polygon fill="white" stroke="black" points="3177.75,-720.36 3088.25,-720.36 3088.25,-684.36 3177.75,-684.36 3177.75,-720.36"/>
<text xml:space="preserve" text-anchor="middle" x="3133" y="-698.66" font-family="Times,serif" font-size="11.00">TimeTranslation</text>
</g>
<!-- TimeTranslation&#45;&gt;Basic -->
<g id="edge15" class="edge">
<title>TimeTranslation&#45;&gt;Basic</title>
<path fill="none" stroke="#666666" d="M3130.19,-720.48C3127.38,-737.59 3123.01,-764.2 3119.67,-784.48"/>
<polygon fill="#666666" stroke="#666666" points="3116.26,-783.65 3118.1,-794.08 3123.17,-784.78 3116.26,-783.65"/>
</g>
<!-- ProdIntegrable&#45;&gt;FunctionalAnalysis -->
<g id="edge17" class="edge">
<title>ProdIntegrable&#45;&gt;FunctionalAnalysis</title>
<path fill="none" stroke="#666666" d="M3549.92,-711.13C3581.3,-716.85 3625.76,-724.42 3665,-729.15 3764.13,-741.11 4019.68,-727.93 4113,-763.44 4127.44,-768.93 4141.35,-778.71 4152.58,-788.13"/>
<polygon fill="#666666" stroke="#666666" points="4150.01,-790.53 4159.83,-794.52 4154.64,-785.28 4150.01,-790.53"/>
</g>
<!-- ProdIntegrable&#45;&gt;Basic -->
<g id="edge16" class="edge">
<title>ProdIntegrable&#45;&gt;Basic</title>
<path fill="none" stroke="#666666" d="M3468.65,-720.86C3461.18,-723.81 3453.41,-726.71 3446,-729.15 3342.07,-763.39 3215.91,-791.82 3153.62,-805.01"/>
<polygon fill="#666666" stroke="#666666" points="3152.95,-801.58 3143.88,-807.06 3154.39,-808.43 3152.95,-801.58"/>
</g>
<!-- Tonelli -->
<g id="node21" class="node">
<title>Tonelli</title>
<polygon fill="white" stroke="black" points="3484,-523.58 3430,-523.58 3430,-487.58 3484,-487.58 3484,-523.58"/>
<text xml:space="preserve" text-anchor="middle" x="3457" y="-501.88" font-family="Times,serif" font-size="11.00">Tonelli</text>
</g>
<!-- Tonelli&#45;&gt;Basic -->
<g id="edge20" class="edge">
<title>Tonelli&#45;&gt;Basic</title>
<path fill="none" stroke="#666666" d="M3482.28,-523.96C3487.32,-526.85 3492.7,-529.56 3498,-531.58 3538.95,-547.13 3566.91,-515.46 3595,-549.08 3617.45,-575.94 3587.74,-719.14 3578,-729.15 3519.24,-789.57 3254.36,-807.03 3153.84,-811.53"/>
<polygon fill="#666666" stroke="#666666" points="3153.78,-808.02 3143.94,-811.95 3154.08,-815.02 3153.78,-808.02"/>
</g>
<!-- Tonelli&#45;&gt;Decomposition -->
<g id="edge21" class="edge">
<title>Tonelli&#45;&gt;Decomposition</title>
<path fill="none" stroke="#666666" d="M3448.35,-523.88C3441.67,-537.24 3432.29,-555.99 3424.61,-571.36"/>
<polygon fill="#666666" stroke="#666666" points="3421.63,-569.49 3420.29,-580 3427.89,-572.62 3421.63,-569.49"/>
</g>
<!-- Momentum -->
<g id="node22" class="node">
<title>Momentum</title>
<polygon fill="white" stroke="black" points="4092.12,-720.36 4025.88,-720.36 4025.88,-684.36 4092.12,-684.36 4092.12,-720.36"/>
<text xml:space="preserve" text-anchor="middle" x="4059" y="-698.66" font-family="Times,serif" font-size="11.00">Momentum</text>
</g>
<!-- Momentum&#45;&gt;FunctionalAnalysis -->
<g id="edge34" class="edge">
<title>Momentum&#45;&gt;FunctionalAnalysis</title>
<path fill="none" stroke="#666666" d="M4077.86,-720.73C4097.53,-738.84 4128.55,-767.41 4150.86,-787.95"/>
<polygon fill="#666666" stroke="#666666" points="4148.39,-790.43 4158.12,-794.63 4153.13,-785.28 4148.39,-790.43"/>
</g>
<!-- Momentum&#45;&gt;BesselFunction -->
<g id="edge31" class="edge">
<title>Momentum&#45;&gt;BesselFunction</title>
<path fill="none" stroke="#666666" d="M4058.53,-720.48C4058.07,-737.51 4057.34,-763.95 4056.79,-784.2"/>
<polygon fill="#666666" stroke="#666666" points="4053.29,-783.97 4056.52,-794.06 4060.29,-784.16 4053.29,-783.97"/>
</g>
<!-- Momentum&#45;&gt;Basic -->
<g id="edge30" class="edge">
<title>Momentum&#45;&gt;Basic</title>
<path fill="none" stroke="#666666" d="M4025.4,-707.26C3880.23,-724.11 3307.26,-790.62 3153.27,-808.5"/>
<polygon fill="#666666" stroke="#666666" points="3153.14,-804.99 3143.61,-809.62 3153.95,-811.94 3153.14,-804.99"/>
</g>
<!-- Momentum&#45;&gt;Euclidean -->
<g id="edge33" class="edge">
<title>Momentum&#45;&gt;Euclidean</title>
<path fill="none" stroke="#666666" d="M4026.69,-683.9C4001.41,-670.58 3964.91,-653.72 3930.5,-646.58 3829.98,-625.7 3567.28,-618.58 3468.5,-646.58 3446.98,-652.68 3425.55,-665.51 3408.95,-677.33"/>
<polygon fill="#666666" stroke="#666666" points="3406.95,-674.45 3400.98,-683.21 3411.11,-680.08 3406.95,-674.45"/>
</g>
<!-- Momentum&#45;&gt;DiscreteSymmetry -->
<g id="edge32" class="edge">
<title>Momentum&#45;&gt;DiscreteSymmetry</title>
<path fill="none" stroke="#666666" d="M4025.47,-694.96C3938.29,-678.32 3703.51,-633.51 3591.74,-612.17"/>
<polygon fill="#666666" stroke="#666666" points="3592.64,-608.78 3582.16,-610.34 3591.33,-615.65 3592.64,-608.78"/>
</g>
<!-- Defs -->
<g id="node26" class="node">
<title>Defs</title>
<polygon fill="white" stroke="black" points="1925,-720.36 1871,-720.36 1871,-684.36 1925,-684.36 1925,-720.36"/>
<text xml:space="preserve" text-anchor="middle" x="1898" y="-698.66" font-family="Times,serif" font-size="11.00">Defs</text>
</g>
<!-- Momentum&#45;&gt;Defs -->
<g id="edge35" class="edge">
<title>Momentum&#45;&gt;Defs</title>
<path fill="none" stroke="#666666" d="M4026.69,-683.9C4001.41,-670.58 3964.91,-653.72 3930.5,-646.58 3747.08,-608.48 3274.78,-642.19 3087.5,-646.58 2634.23,-657.2 2084.6,-690.56 1936.36,-699.91"/>
<polygon fill="#666666" stroke="#666666" points="1936.48,-696.39 1926.72,-700.52 1936.92,-703.38 1936.48,-696.39"/>
</g>
<!-- Position -->
<g id="node23" class="node">
<title>Position</title>
<polygon fill="white" stroke="black" points="4080,-523.58 4026,-523.58 4026,-487.58 4080,-487.58 4080,-523.58"/>
<text xml:space="preserve" text-anchor="middle" x="4053" y="-501.88" font-family="Times,serif" font-size="11.00">Position</text>
</g>
<!-- Position&#45;&gt;FunctionalAnalysis -->
<g id="edge43" class="edge">
<title>Position&#45;&gt;FunctionalAnalysis</title>
<path fill="none" stroke="#666666" d="M4041.81,-523.8C4017.33,-563.86 3964.75,-664.81 4011,-729.15 4038.92,-767.99 4070.75,-741.03 4113,-763.44 4125.92,-770.29 4138.98,-779.66 4149.97,-788.4"/>
<polygon fill="#666666" stroke="#666666" points="4147.54,-790.93 4157.5,-794.56 4151.98,-785.52 4147.54,-790.93"/>
</g>
<!-- Position&#45;&gt;FourierTransforms -->
<g id="edge42" class="edge">
<title>Position&#45;&gt;FourierTransforms</title>
<path fill="none" stroke="#666666" d="M4080.39,-512.5C4103.04,-518.55 4134.96,-529.83 4157,-549.08 4233.55,-615.9 4279.89,-731.79 4298.1,-784.89"/>
<polygon fill="#666666" stroke="#666666" points="4294.68,-785.71 4301.17,-794.09 4301.32,-783.49 4294.68,-785.71"/>
</g>
<!-- Position&#45;&gt;Basic -->
<g id="edge38" class="edge">
<title>Position&#45;&gt;Basic</title>
<path fill="none" stroke="#666666" d="M4025.73,-508.81C3961.63,-513.96 3796.37,-526.57 3658,-531.58 3631.17,-532.55 1743.9,-530.01 1725,-549.08 1708.35,-565.88 1705.69,-706.08 1728,-729.15 1740.07,-741.63 2852.56,-799.45 3076.13,-810.95"/>
<polygon fill="#666666" stroke="#666666" points="3075.88,-814.44 3086.04,-811.46 3076.24,-807.45 3075.88,-814.44"/>
</g>
<!-- Position&#45;&gt;Euclidean -->
<g id="edge41" class="edge">
<title>Position&#45;&gt;Euclidean</title>
<path fill="none" stroke="#666666" d="M4025.55,-512.48C3994.68,-519.52 3943.34,-532.45 3901,-549.08 3839.11,-573.38 3830.92,-596.08 3768,-617.58 3633.7,-663.45 3591.33,-639.79 3454,-675.58 3442.57,-678.55 3430.38,-682.39 3419.19,-686.18"/>
<polygon fill="#666666" stroke="#666666" points="3418.12,-682.85 3409.82,-689.43 3420.41,-689.46 3418.12,-682.85"/>
</g>
<!-- Position&#45;&gt;DiscreteSymmetry -->
<g id="edge40" class="edge">
<title>Position&#45;&gt;DiscreteSymmetry</title>
<path fill="none" stroke="#666666" d="M4025.7,-514.08C4003.99,-519.76 3972.77,-527.29 3945,-531.58 3847.63,-546.62 3821.19,-532.89 3724,-549.08 3679.12,-556.55 3629.42,-569.41 3591.69,-580.15"/>
<polygon fill="#666666" stroke="#666666" points="3590.98,-576.71 3582.34,-582.84 3592.92,-583.44 3590.98,-576.71"/>
</g>
<!-- Position&#45;&gt;Momentum -->
<g id="edge39" class="edge">
<title>Position&#45;&gt;Momentum</title>
<path fill="none" stroke="#666666" d="M4051.5,-523.93C4050.9,-531.63 4050.29,-540.8 4050,-549.08 4048.93,-579.5 4048.37,-587.17 4050,-617.58 4050.99,-635.97 4053.18,-656.54 4055.15,-672.69"/>
<polygon fill="#666666" stroke="#666666" points="4051.68,-673.09 4056.41,-682.57 4058.62,-672.21 4051.68,-673.09"/>
</g>
<!-- Parseval -->
<g id="node25" class="node">
<title>Parseval</title>
<polygon fill="white" stroke="black" points="4142.12,-617.58 4087.88,-617.58 4087.88,-581.58 4142.12,-581.58 4142.12,-617.58"/>
<text xml:space="preserve" text-anchor="middle" x="4115" y="-595.88" font-family="Times,serif" font-size="11.00">Parseval</text>
</g>
<!-- Position&#45;&gt;Parseval -->
<g id="edge44" class="edge">
<title>Position&#45;&gt;Parseval</title>
<path fill="none" stroke="#666666" d="M4064.66,-523.88C4073.84,-537.5 4086.79,-556.71 4097.25,-572.24"/>
<polygon fill="#666666" stroke="#666666" points="4094.05,-573.76 4102.54,-580.09 4099.86,-569.84 4094.05,-573.76"/>
</g>
<!-- Position&#45;&gt;Defs -->
<g id="edge45" class="edge">
<title>Position&#45;&gt;Defs</title>
<path fill="none" stroke="#666666" d="M4025.66,-509.94C3958.52,-518.31 3789.2,-540.02 3765,-549.08 3712.11,-568.86 3711.8,-600.43 3658,-617.58 3488.89,-671.47 2179.91,-696.51 1936.79,-700.72"/>
<polygon fill="#666666" stroke="#666666" points="1936.85,-697.22 1926.91,-700.89 1936.97,-704.21 1936.85,-697.22"/>
</g>
<!-- RealForm -->
<g id="node24" class="node">
<title>RealForm</title>
<polygon fill="white" stroke="black" points="4086.12,-420.79 4025.88,-420.79 4025.88,-384.79 4086.12,-384.79 4086.12,-420.79"/>
<text xml:space="preserve" text-anchor="middle" x="4056" y="-399.09" font-family="Times,serif" font-size="11.00">RealForm</text>
</g>
<!-- RealForm&#45;&gt;Basic -->
<g id="edge46" class="edge">
<title>RealForm&#45;&gt;Basic</title>
<path fill="none" stroke="#666666" d="M4025.39,-403.55C3925.13,-403.27 3597.86,-406.42 3333,-455.08 3217.04,-476.38 3195.53,-513.65 3079,-531.58 3041.27,-537.38 1731.82,-521.91 1705,-549.08 1688.95,-565.33 1684.07,-705.25 1707,-729.15 1719.22,-741.89 2852.12,-799.68 3076.6,-811.01"/>
<polygon fill="#666666" stroke="#666666" points="3076.09,-814.49 3086.25,-811.49 3076.44,-807.5 3076.09,-814.49"/>
</g>
<!-- RealForm&#45;&gt;DiscreteSymmetry -->
<g id="edge50" class="edge">
<title>RealForm&#45;&gt;DiscreteSymmetry</title>
<path fill="none" stroke="#666666" d="M4025.48,-419.66C4018.5,-423.09 4011.05,-426.58 4004,-429.58 3858.96,-491.2 3682.99,-550.04 3592.03,-579.31"/>
<polygon fill="#666666" stroke="#666666" points="3591,-575.97 3582.55,-582.36 3593.14,-582.63 3591,-575.97"/>
</g>
<!-- RealForm&#45;&gt;ComplexTestFunction -->
<g id="edge47" class="edge">
<title>RealForm&#45;&gt;ComplexTestFunction</title>
<path fill="none" stroke="#666666" d="M4025.54,-404.66C3905.45,-408.3 3468.78,-423.61 3416,-455.08 3332.42,-504.9 3287.82,-619.92 3270.99,-673.26"/>
<polygon fill="#666666" stroke="#666666" points="3267.74,-671.92 3268.17,-682.5 3274.44,-673.96 3267.74,-671.92"/>
</g>
<!-- RealForm&#45;&gt;PositiveTimeTestFunction -->
<g id="edge51" class="edge">
<title>RealForm&#45;&gt;PositiveTimeTestFunction</title>
<path fill="none" stroke="#666666" d="M4025.54,-420.7C4018.62,-424.03 4011.18,-427.22 4004,-429.58 3940.5,-450.43 3759.32,-478.55 3654.83,-493.74"/>
<polygon fill="#666666" stroke="#666666" points="3654.62,-490.24 3645.23,-495.13 3655.62,-497.16 3654.62,-490.24"/>
</g>
<!-- RealForm&#45;&gt;Momentum -->
<g id="edge49" class="edge">
<title>RealForm&#45;&gt;Momentum</title>
<path fill="none" stroke="#666666" d="M4073.7,-421.06C4081.88,-430.29 4090.71,-442.36 4095,-455.08 4105.86,-487.3 4109.77,-500.95 4095,-531.58 4089.57,-542.83 4078.94,-538.08 4073,-549.08 4051.97,-588.02 4052.39,-640.82 4055.24,-672.92"/>
<polygon fill="#666666" stroke="#666666" points="4051.74,-673.05 4056.26,-682.63 4058.7,-672.32 4051.74,-673.05"/>
</g>
<!-- RealForm&#45;&gt;Position -->
<g id="edge48" class="edge">
<title>RealForm&#45;&gt;Position</title>
<path fill="none" stroke="#666666" d="M4055.49,-420.89C4055.04,-435.94 4054.38,-458.18 4053.85,-475.95"/>
<polygon fill="#666666" stroke="#666666" points="4050.36,-475.78 4053.56,-485.88 4057.35,-475.99 4050.36,-475.78"/>
</g>
<!-- Parseval&#45;&gt;FourierTransforms -->
<g id="edge37" class="edge">
<title>Parseval&#45;&gt;FourierTransforms</title>
<path fill="none" stroke="#666666" d="M4130.71,-617.95C4164.48,-655.3 4244.11,-743.38 4283.75,-787.22"/>
<polygon fill="#666666" stroke="#666666" points="4281.02,-789.43 4290.32,-794.5 4286.21,-784.73 4281.02,-789.43"/>
</g>
<!-- Parseval&#45;&gt;Momentum -->
<g id="edge36" class="edge">
<title>Parseval&#45;&gt;Momentum</title>
<path fill="none" stroke="#666666" d="M4105.5,-617.67C4096.89,-633.17 4084.06,-656.26 4074.06,-674.26"/>
<polygon fill="#666666" stroke="#666666" points="4071.08,-672.42 4069.28,-682.86 4077.2,-675.82 4071.08,-672.42"/>
</g>
<!-- Defs&#45;&gt;FunctionalAnalysis -->
<g id="edge24" class="edge">
<title>Defs&#45;&gt;FunctionalAnalysis</title>
<path fill="none" stroke="#666666" d="M1925.25,-703.99C2176.82,-709.76 4085.89,-753.88 4113,-763.44 4127.67,-768.61 4141.7,-778.44 4152.95,-787.98"/>
<polygon fill="#666666" stroke="#666666" points="4150.42,-790.41 4160.2,-794.47 4155.08,-785.19 4150.42,-790.41"/>
</g>
<!-- Defs&#45;&gt;Basic -->
<g id="edge22" class="edge">
<title>Defs&#45;&gt;Basic</title>
<path fill="none" stroke="#666666" d="M1925.41,-705.83C2084.58,-720.16 2889.24,-792.61 3076.17,-809.44"/>
<polygon fill="#666666" stroke="#666666" points="3075.79,-812.92 3086.07,-810.33 3076.42,-805.95 3075.79,-812.92"/>
</g>
<!-- Defs&#45;&gt;ComplexTestFunction -->
<g id="edge23" class="edge">
<title>Defs&#45;&gt;ComplexTestFunction</title>
<path fill="none" stroke="#666666" d="M1925.21,-700.61C2054.76,-692.39 2621.95,-657.49 3087.5,-646.58 3127.49,-645.64 3139.16,-635.17 3177.5,-646.58 3198.09,-652.7 3218.35,-665.53 3233.98,-677.35"/>
<polygon fill="#666666" stroke="#666666" points="3231.39,-679.77 3241.42,-683.19 3235.72,-674.26 3231.39,-679.77"/>
</g>
<!-- TwoPoint -->
<g id="node27" class="node">
<title>TwoPoint</title>
<polygon fill="white" stroke="black" points="1924.62,-617.58 1867.38,-617.58 1867.38,-581.58 1924.62,-581.58 1924.62,-617.58"/>
<text xml:space="preserve" text-anchor="middle" x="1896" y="-595.88" font-family="Times,serif" font-size="11.00">TwoPoint</text>
</g>
<!-- TwoPoint&#45;&gt;Basic -->
<g id="edge25" class="edge">
<title>TwoPoint&#45;&gt;Basic</title>
<path fill="none" stroke="#666666" d="M1881.52,-617.93C1860.65,-645.1 1827.68,-697.81 1857,-729.15 1899.73,-774.82 2869.03,-805.73 3076.24,-811.83"/>
<polygon fill="#666666" stroke="#666666" points="3076.09,-815.33 3086.19,-812.12 3076.3,-808.33 3076.09,-815.33"/>
</g>
<!-- TwoPoint&#45;&gt;Defs -->
<g id="edge26" class="edge">
<title>TwoPoint&#45;&gt;Defs</title>
<path fill="none" stroke="#666666" d="M1896.34,-617.67C1896.64,-632.73 1897.08,-654.97 1897.43,-672.74"/>
<polygon fill="#666666" stroke="#666666" points="1893.93,-672.74 1897.63,-682.67 1900.93,-672.6 1893.93,-672.74"/>
</g>
<!-- GaussianMoments -->
<g id="node28" class="node">
<title>GaussianMoments</title>
<polygon fill="white" stroke="black" points="1838.25,-617.58 1739.75,-617.58 1739.75,-581.58 1838.25,-581.58 1838.25,-617.58"/>
<text xml:space="preserve" text-anchor="middle" x="1789" y="-595.88" font-family="Times,serif" font-size="11.00">GaussianMoments</text>
</g>
<!-- GaussianMoments&#45;&gt;Basic -->
<g id="edge27" class="edge">
<title>GaussianMoments&#45;&gt;Basic</title>
<path fill="none" stroke="#666666" d="M1789.93,-617.78C1792.48,-646.24 1802.07,-702.61 1838,-729.15 1889.12,-766.9 2868.99,-804.1 3076.57,-811.58"/>
<polygon fill="#666666" stroke="#666666" points="3076.14,-815.07 3086.26,-811.93 3076.39,-808.07 3076.14,-815.07"/>
</g>
<!-- GaussianMoments&#45;&gt;Defs -->
<g id="edge29" class="edge">
<title>GaussianMoments&#45;&gt;Defs</title>
<path fill="none" stroke="#666666" d="M1807.49,-617.67C1824.95,-633.82 1851.34,-658.21 1871.12,-676.51"/>
<polygon fill="#666666" stroke="#666666" points="1868.59,-678.94 1878.31,-683.15 1873.34,-673.8 1868.59,-678.94"/>
</g>
<!-- Construct -->
<g id="node32" class="node">
<title>Construct</title>
<polygon fill="white" stroke="black" points="816.38,-523.58 757.62,-523.58 757.62,-487.58 816.38,-487.58 816.38,-523.58"/>
<text xml:space="preserve" text-anchor="middle" x="787" y="-501.88" font-family="Times,serif" font-size="11.00">Construct</text>
</g>
<!-- GaussianMoments&#45;&gt;Construct -->
<g id="edge28" class="edge">
<title>GaussianMoments&#45;&gt;Construct</title>
<path fill="none" stroke="#666666" d="M1739.27,-592.41C1651.67,-581.79 1464.05,-560.13 1305,-549.08 1199.85,-541.77 932.39,-560.38 831,-531.58 828.26,-530.8 825.52,-529.82 822.8,-528.7"/>
<polygon fill="#666666" stroke="#666666" points="824.51,-525.63 813.98,-524.48 821.49,-531.95 824.51,-525.63"/>
</g>
<!-- NuclearSpace -->
<g id="node29" class="node">
<title>NuclearSpace</title>
<polygon fill="#ffcccc" stroke="black" points="911.46,-802.84 911.46,-825.04 876.05,-840.73 825.95,-840.73 790.54,-825.04 790.54,-802.84 825.95,-787.15 876.05,-787.15 911.46,-802.84"/>
<text xml:space="preserve" text-anchor="middle" x="851" y="-816.99" font-family="Times,serif" font-size="11.00">NuclearSpace</text>
<text xml:space="preserve" text-anchor="middle" x="851" y="-803.49" font-family="Times,serif" font-size="11.00">(axiom)</text>
</g>
<!-- Minlos -->
<g id="node30" class="node">
<title>Minlos</title>
<polygon fill="#ffcccc" stroke="black" points="891.65,-691.27 891.65,-713.46 869.01,-729.15 836.99,-729.15 814.35,-713.46 814.35,-691.27 836.99,-675.58 869.01,-675.58 891.65,-691.27"/>
<text xml:space="preserve" text-anchor="middle" x="853" y="-705.41" font-family="Times,serif" font-size="11.00">Minlos</text>
<text xml:space="preserve" text-anchor="middle" x="853" y="-691.91" font-family="Times,serif" font-size="11.00">(axiom)</text>
</g>
<!-- Minlos&#45;&gt;PositiveDefinite -->
<g id="edge54" class="edge">
<title>Minlos&#45;&gt;PositiveDefinite</title>
<path fill="none" stroke="#666666" d="M885.43,-718.18C896.21,-722.47 908.42,-726.67 920,-729.15 1857.02,-930.29 2116.07,-796.37 3073,-848.73 3485.43,-871.29 3593.72,-829.99 4001,-898.73 4002.21,-898.93 4003.43,-899.15 4004.65,-899.39"/>
<polygon fill="#666666" stroke="#666666" points="4003.8,-902.78 4014.31,-901.5 4005.29,-895.94 4003.8,-902.78"/>
</g>
<!-- Minlos&#45;&gt;GaussianRBF -->
<g id="edge52" class="edge">
<title>Minlos&#45;&gt;GaussianRBF</title>
<path fill="none" stroke="#666666" d="M892.11,-704.68C1014.82,-708.8 1403.25,-721.54 1725,-729.15 2154.5,-739.31 3230.27,-723.13 3658,-763.44 3742.05,-771.36 3838.52,-789.9 3895.75,-801.91"/>
<polygon fill="#666666" stroke="#666666" points="3894.67,-805.25 3905.18,-803.9 3896.12,-798.41 3894.67,-805.25"/>
</g>
<!-- Minlos&#45;&gt;NuclearSpace -->
<g id="edge53" class="edge">
<title>Minlos&#45;&gt;NuclearSpace</title>
<path fill="none" stroke="#666666" d="M852.52,-729.61C852.27,-743.43 851.95,-760.62 851.68,-775.79"/>
<polygon fill="#666666" stroke="#666666" points="848.19,-775.33 851.5,-785.39 855.18,-775.46 848.19,-775.33"/>
</g>
<!-- MinlosAnalytic -->
<g id="node31" class="node">
<title>MinlosAnalytic</title>
<polygon fill="white" stroke="black" points="825.5,-617.58 740.5,-617.58 740.5,-581.58 825.5,-581.58 825.5,-617.58"/>
<text xml:space="preserve" text-anchor="middle" x="783" y="-595.88" font-family="Times,serif" font-size="11.00">MinlosAnalytic</text>
</g>
<!-- MinlosAnalytic&#45;&gt;Basic -->
<g id="edge55" class="edge">
<title>MinlosAnalytic&#45;&gt;Basic</title>
<path fill="none" stroke="#666666" d="M825.83,-603.74C894.83,-610.09 1033.71,-628.1 1141,-675.58 1178.13,-692.01 1176.65,-715.82 1215,-729.15 1299.67,-758.59 1931.45,-759.51 2021,-763.44 2433.96,-781.57 2934.55,-804.61 3076.07,-811.14"/>
<polygon fill="#666666" stroke="#666666" points="3075.86,-814.63 3086.01,-811.6 3076.18,-807.64 3075.86,-814.63"/>
</g>
<!-- MinlosAnalytic&#45;&gt;Minlos -->
<g id="edge56" class="edge">
<title>MinlosAnalytic&#45;&gt;Minlos</title>
<path fill="none" stroke="#666666" d="M794.87,-617.67C804.2,-631.1 817.49,-650.24 829.01,-666.82"/>
<polygon fill="#666666" stroke="#666666" points="826.1,-668.77 834.68,-674.99 831.85,-664.78 826.1,-668.77"/>
</g>
<!-- Construct&#45;&gt;Basic -->
<g id="edge57" class="edge">
<title>Construct&#45;&gt;Basic</title>
<path fill="none" stroke="#666666" d="M813.12,-523.95C818.81,-527 824.94,-529.77 831,-531.58 947.92,-566.5 991.06,-505.39 1105,-549.08 1135.14,-560.63 1302.74,-717.9 1333,-729.15 1415.56,-759.84 2037.01,-759.33 2125,-763.44 2495.49,-780.72 2943.84,-803.99 3076.36,-810.91"/>
<polygon fill="#666666" stroke="#666666" points="3076.16,-814.41 3086.33,-811.44 3076.52,-807.42 3076.16,-814.41"/>
</g>
<!-- Construct&#45;&gt;ComplexTestFunction -->
<g id="edge58" class="edge">
<title>Construct&#45;&gt;ComplexTestFunction</title>
<path fill="none" stroke="#666666" d="M812.58,-523.92C818.4,-527.06 824.73,-529.87 831,-531.58 891.95,-548.19 1905,-544.38 1968,-549.08 2196.07,-566.09 2250.61,-593.09 2478,-617.58 2794.55,-651.67 2880.93,-607.74 3192,-675.58 3197.93,-676.87 3204.03,-678.54 3210.05,-680.4"/>
<polygon fill="#666666" stroke="#666666" points="3208.71,-683.64 3219.31,-683.46 3210.91,-677 3208.71,-683.64"/>
</g>
<!-- Construct&#45;&gt;Position -->
<g id="edge59" class="edge">
<title>Construct&#45;&gt;Position</title>
<path fill="none" stroke="#666666" d="M797.2,-487.33C807.16,-471.69 823.95,-450.45 845.5,-442.33 881.86,-428.61 3604.75,-439.35 3643.5,-442.33 3781.09,-452.89 3942.4,-483.13 4014.64,-497.63"/>
<polygon fill="#666666" stroke="#666666" points="4013.87,-501.05 4024.37,-499.6 4015.26,-494.19 4013.87,-501.05"/>
</g>
<!-- Construct&#45;&gt;RealForm -->
<g id="edge60" class="edge">
<title>Construct&#45;&gt;RealForm</title>
<path fill="none" stroke="#666666" d="M796.89,-487.41C804.57,-475.93 816.35,-461.75 831,-455.08 887.82,-429.17 3016.56,-430.75 3079,-429.58 3441.29,-422.74 3879.02,-409.36 4014.21,-405.12"/>
<polygon fill="#666666" stroke="#666666" points="4014.22,-408.62 4024.1,-404.8 4014,-401.62 4014.22,-408.62"/>
</g>
<!-- Construct&#45;&gt;Defs -->
<g id="edge63" class="edge">
<title>Construct&#45;&gt;Defs</title>
<path fill="none" stroke="#666666" d="M812.59,-523.92C818.4,-527.05 824.73,-529.87 831,-531.58 860.7,-539.67 1917.41,-527.14 1939,-549.08 1972.39,-583 1941.53,-641.07 1918.28,-674.86"/>
<polygon fill="#666666" stroke="#666666" points="1915.52,-672.7 1912.56,-682.87 1921.22,-676.76 1915.52,-672.7"/>
</g>
<!-- Construct&#45;&gt;Minlos -->
<g id="edge61" class="edge">
<title>Construct&#45;&gt;Minlos</title>
<path fill="none" stroke="#666666" d="M816.71,-523.71C825.7,-530.44 834.62,-538.98 840,-549.08 858.96,-584.63 860,-631.59 857.71,-663.91"/>
<polygon fill="#666666" stroke="#666666" points="854.25,-663.33 856.87,-673.6 861.22,-663.94 854.25,-663.33"/>
</g>
<!-- Construct&#45;&gt;MinlosAnalytic -->
<g id="edge62" class="edge">
<title>Construct&#45;&gt;MinlosAnalytic</title>
<path fill="none" stroke="#666666" d="M786.25,-523.88C785.68,-536.86 784.9,-554.91 784.24,-570.02"/>
<polygon fill="#666666" stroke="#666666" points="780.75,-569.69 783.81,-579.84 787.75,-570 780.75,-569.69"/>
</g>
<!-- IsGaussian -->
<g id="node33" class="node">
<title>IsGaussian</title>
<polygon fill="white" stroke="black" points="910.75,-523.58 845.25,-523.58 845.25,-487.58 910.75,-487.58 910.75,-523.58"/>
<text xml:space="preserve" text-anchor="middle" x="878" y="-501.88" font-family="Times,serif" font-size="11.00">IsGaussian</text>
</g>
<!-- IsGaussian&#45;&gt;GaussianMoments -->
<g id="edge64" class="edge">
<title>IsGaussian&#45;&gt;GaussianMoments</title>
<path fill="none" stroke="#666666" d="M911.22,-509.85C983.07,-516.94 1158.24,-534.27 1305,-549.08 1457.32,-564.45 1636.57,-582.86 1728.26,-592.31"/>
<polygon fill="#666666" stroke="#666666" points="1727.72,-595.77 1738.03,-593.32 1728.44,-588.81 1727.72,-595.77"/>
</g>
<!-- OS0_Analyticity -->
<g id="node36" class="node">
<title>OS0_Analyticity</title>
<polygon fill="#ffcccc" stroke="black" points="2567.07,-391.69 2567.07,-413.88 2526.61,-429.58 2469.39,-429.58 2428.93,-413.88 2428.93,-391.69 2469.39,-376 2526.61,-376 2567.07,-391.69"/>
<text xml:space="preserve" text-anchor="middle" x="2498" y="-405.84" font-family="Times,serif" font-size="11.00">OS0_Analyticity</text>
<text xml:space="preserve" text-anchor="middle" x="2498" y="-392.34" font-family="Times,serif" font-size="11.00">(axiom)</text>
</g>
<!-- IsGaussian&#45;&gt;OS0_Analyticity -->
<g id="edge65" class="edge">
<title>IsGaussian&#45;&gt;OS0_Analyticity</title>
<path fill="none" stroke="#666666" d="M911.16,-502.51C1107.75,-490.28 2121.85,-427.19 2417.2,-408.81"/>
<polygon fill="#666666" stroke="#666666" points="2417.38,-412.31 2427.14,-408.2 2416.94,-405.32 2417.38,-412.31"/>
</g>
<!-- GaussianFreeField -->
<g id="node34" class="node">
<title>GaussianFreeField</title>
<polygon fill="white" stroke="black" points="911,-420.79 811,-420.79 811,-384.79 911,-384.79 911,-420.79"/>
<text xml:space="preserve" text-anchor="middle" x="861" y="-399.09" font-family="Times,serif" font-size="11.00">GaussianFreeField</text>
</g>
<!-- GaussianFreeField&#45;&gt;FunctionalAnalysis -->
<g id="edge70" class="edge">
<title>GaussianFreeField&#45;&gt;FunctionalAnalysis</title>
<path fill="none" stroke="#666666" d="M911.28,-404.66C1105.15,-408.01 1822.85,-420.34 2414,-429.58 2438.17,-429.95 4136.47,-438.44 4154,-455.08 4200.95,-499.63 4187.47,-707.8 4180.75,-784.48"/>
<polygon fill="#666666" stroke="#666666" points="4177.3,-783.83 4179.88,-794.11 4184.27,-784.47 4177.3,-783.83"/>
</g>
<!-- GaussianFreeField&#45;&gt;Basic -->
<g id="edge66" class="edge">
<title>GaussianFreeField&#45;&gt;Basic</title>
<path fill="none" stroke="#666666" d="M898.03,-421.14C955.91,-448.29 1071.33,-502.53 1169,-549.08 1335.54,-628.45 1364.29,-683.33 1543,-729.15 1562.19,-734.07 2837.22,-798.87 3076.52,-810.99"/>
<polygon fill="#666666" stroke="#666666" points="3076.07,-814.47 3086.23,-811.48 3076.42,-807.48 3076.07,-814.47"/>
</g>
<!-- GaussianFreeField&#45;&gt;Euclidean -->
<g id="edge69" class="edge">
<title>GaussianFreeField&#45;&gt;Euclidean</title>
<path fill="none" stroke="#666666" d="M911.5,-406.32C1030.89,-412.51 1339.82,-429.81 1597,-455.08 1693.81,-464.59 3241.92,-644.22 3334,-675.58 3336.71,-676.5 3339.44,-677.6 3342.14,-678.82"/>
<polygon fill="#666666" stroke="#666666" points="3340.46,-681.89 3350.96,-683.31 3343.64,-675.66 3340.46,-681.89"/>
</g>
<!-- GaussianFreeField&#45;&gt;DiscreteSymmetry -->
<g id="edge68" class="edge">
<title>GaussianFreeField&#45;&gt;DiscreteSymmetry</title>
<path fill="none" stroke="#666666" d="M911.45,-404.28C1165.54,-406.9 2295.61,-420.49 2361,-455.08 2398.25,-474.78 2379.58,-512.2 2417,-531.58 2468.81,-558.4 3411.95,-529.76 3467,-549.08 3481.64,-554.21 3495.56,-564.13 3506.66,-573.75"/>
<polygon fill="#666666" stroke="#666666" points="3504.06,-576.12 3513.8,-580.29 3508.79,-570.95 3504.06,-576.12"/>
</g>
<!-- GaussianFreeField&#45;&gt;Position -->
<g id="edge67" class="edge">
<title>GaussianFreeField&#45;&gt;Position</title>
<path fill="none" stroke="#666666" d="M911.45,-404.64C1283.27,-410.92 3586.75,-449.97 3658,-455.08 3789.58,-464.5 3944.54,-487.39 4014.86,-498.42"/>
<polygon fill="#666666" stroke="#666666" points="4013.88,-501.81 4024.31,-499.92 4014.98,-494.9 4013.88,-501.81"/>
</g>
<!-- GaussianFreeField&#45;&gt;Defs -->
<g id="edge76" class="edge">
<title>GaussianFreeField&#45;&gt;Defs</title>
<path fill="none" stroke="#666666" d="M911.49,-407.63C1002.3,-414.83 1199.08,-431.76 1364,-455.08 1552.73,-481.76 1597.19,-505.43 1786,-531.58 1806.12,-534.36 1954.34,-534.04 1968,-549.08 2002.09,-586.6 1957.35,-643.59 1925.29,-676.17"/>
<polygon fill="#666666" stroke="#666666" points="1923.2,-673.31 1918.55,-682.83 1928.12,-678.29 1923.2,-673.31"/>
</g>
<!-- GaussianFreeField&#45;&gt;Minlos -->
<g id="edge73" class="edge">
<title>GaussianFreeField&#45;&gt;Minlos</title>
<path fill="none" stroke="#666666" d="M810.57,-408.92C780.63,-414.86 744.93,-427.63 726,-455.08 684.99,-514.53 691.77,-553.98 726,-617.58 743.06,-649.27 777.94,-670.96 806.84,-684.32"/>
<polygon fill="#666666" stroke="#666666" points="805.22,-687.43 815.78,-688.26 808.04,-681.03 805.22,-687.43"/>
</g>
<!-- GaussianFreeField&#45;&gt;MinlosAnalytic -->
<g id="edge74" class="edge">
<title>GaussianFreeField&#45;&gt;MinlosAnalytic</title>
<path fill="none" stroke="#666666" d="M810.74,-412.33C785.89,-419.36 758.07,-432.1 743,-455.08 719.3,-491.22 743.59,-541.32 763.31,-571.76"/>
<polygon fill="#666666" stroke="#666666" points="760.4,-573.7 768.9,-580.03 766.2,-569.78 760.4,-573.7"/>
</g>
<!-- GaussianFreeField&#45;&gt;Construct -->
<g id="edge72" class="edge">
<title>GaussianFreeField&#45;&gt;Construct</title>
<path fill="none" stroke="#666666" d="M848.45,-420.89C836.86,-436.67 819.48,-460.34 806.16,-478.48"/>
<polygon fill="#666666" stroke="#666666" points="803.61,-476.04 800.51,-486.17 809.25,-480.19 803.61,-476.04"/>
</g>
<!-- GaussianFreeField&#45;&gt;IsGaussian -->
<g id="edge71" class="edge">
<title>GaussianFreeField&#45;&gt;IsGaussian</title>
<path fill="none" stroke="#666666" d="M863.88,-420.89C866.44,-436.02 870.21,-458.4 873.21,-476.21"/>
<polygon fill="#666666" stroke="#666666" points="869.74,-476.62 874.85,-485.9 876.64,-475.46 869.74,-476.62"/>
</g>
<!-- Axioms -->
<g id="node35" class="node">
<title>Axioms</title>
<polygon fill="lightgreen" stroke="black" points="2803,-523.58 2749,-523.58 2749,-487.58 2803,-487.58 2803,-523.58"/>
<text xml:space="preserve" text-anchor="middle" x="2776" y="-501.88" font-family="Times,serif" font-size="11.00">Axioms</text>
</g>
<!-- GaussianFreeField&#45;&gt;Axioms -->
<g id="edge75" class="edge">
<title>GaussianFreeField&#45;&gt;Axioms</title>
<path fill="none" stroke="#666666" d="M911.25,-403.52C1105.81,-402.89 1828.09,-404.33 2420,-455.08 2536.18,-465.04 2672.44,-486.83 2737.56,-497.88"/>
<polygon fill="#666666" stroke="#666666" points="2736.93,-501.32 2747.37,-499.55 2738.11,-494.42 2736.93,-501.32"/>
</g>
<!-- Axioms&#45;&gt;FunctionalAnalysis -->
<g id="edge81" class="edge">
<title>Axioms&#45;&gt;FunctionalAnalysis</title>
<path fill="none" stroke="#666666" d="M2803.4,-509.38C2855.73,-514.63 2973.55,-525.91 3073,-531.58 3137.92,-535.28 3595.26,-531.98 3658,-549.08 3818.45,-592.79 3831.74,-667.02 3986,-729.15 4040.23,-750.99 4060.54,-737.63 4113,-763.44 4126.32,-770 4139.62,-779.47 4150.68,-788.37"/>
<polygon fill="#666666" stroke="#666666" points="4148.32,-790.96 4158.24,-794.68 4152.8,-785.58 4148.32,-790.96"/>
</g>
<!-- Axioms&#45;&gt;Basic -->
<g id="edge77" class="edge">
<title>Axioms&#45;&gt;Basic</title>
<path fill="none" stroke="#666666" d="M2748.58,-510.23C2704.36,-515.95 2614.51,-526.84 2538,-531.58 2512.41,-533.16 1632.96,-530.77 1615,-549.08 1592.52,-571.98 1612,-714.08 1628,-729.15 1641.6,-741.96 2843.79,-799.99 3076.31,-811.1"/>
<polygon fill="#666666" stroke="#666666" points="3075.88,-814.58 3086.04,-811.56 3076.21,-807.59 3075.88,-814.58"/>
</g>
<!-- Axioms&#45;&gt;Euclidean -->
<g id="edge80" class="edge">
<title>Axioms&#45;&gt;Euclidean</title>
<path fill="none" stroke="#666666" d="M2803.18,-510.41C2844.76,-516.6 2926.45,-530.06 2994,-549.08 3032.8,-560 3297.59,-658.29 3334,-675.58 3335.98,-676.52 3337.99,-677.51 3340,-678.55"/>
<polygon fill="#666666" stroke="#666666" points="3338.2,-681.56 3348.66,-683.25 3341.54,-675.41 3338.2,-681.56"/>
</g>
<!-- Axioms&#45;&gt;DiscreteSymmetry -->
<g id="edge79" class="edge">
<title>Axioms&#45;&gt;DiscreteSymmetry</title>
<path fill="none" stroke="#666666" d="M2803.41,-509.25C2855.75,-514.27 2973.6,-525.19 3073,-531.58 3116.73,-534.39 3425.86,-533.99 3467,-549.08 3481.47,-554.38 3495.28,-564.22 3506.35,-573.75"/>
<polygon fill="#666666" stroke="#666666" points="3503.72,-576.08 3513.48,-580.2 3508.42,-570.89 3503.72,-576.08"/>
</g>
<!-- Axioms&#45;&gt;ComplexTestFunction -->
<g id="edge78" class="edge">
<title>Axioms&#45;&gt;ComplexTestFunction</title>
<path fill="none" stroke="#666666" d="M2803.44,-512.24C2842.64,-520.6 2912.42,-536.62 2935,-549.08 2974.24,-570.72 2970.26,-595.04 3009,-617.58 3082.75,-660.48 3111.22,-648.12 3192,-675.58 3196.21,-677.01 3200.55,-678.51 3204.91,-680.04"/>
<polygon fill="#666666" stroke="#666666" points="3203.72,-683.33 3214.31,-683.38 3206.06,-676.74 3203.72,-683.33"/>
</g>
<!-- Axioms&#45;&gt;PositiveTimeTestFunction -->
<g id="edge82" class="edge">
<title>Axioms&#45;&gt;PositiveTimeTestFunction</title>
<path fill="none" stroke="#666666" d="M2803.23,-493.38C2839.41,-477.89 2905.76,-452.03 2965.5,-442.33 3022.42,-433.08 3429.36,-425.43 3484.5,-442.33 3508.91,-449.81 3532.7,-466.06 3550.16,-480.21"/>
<polygon fill="#666666" stroke="#666666" points="3547.62,-482.65 3557.54,-486.39 3552.12,-477.28 3547.62,-482.65"/>
</g>
<!-- Axioms&#45;&gt;TimeTranslation -->
<g id="edge85" class="edge">
<title>Axioms&#45;&gt;TimeTranslation</title>
<path fill="none" stroke="#666666" d="M2800.98,-524.07C2834.19,-546.96 2895.09,-587.68 2950,-617.58 2992.73,-640.84 3043.13,-663.59 3080.2,-679.5"/>
<polygon fill="#666666" stroke="#666666" points="3078.8,-682.71 3089.38,-683.41 3081.55,-676.27 3078.8,-682.71"/>
</g>
<!-- Axioms&#45;&gt;Defs -->
<g id="edge83" class="edge">
<title>Axioms&#45;&gt;Defs</title>
<path fill="none" stroke="#666666" d="M2760.91,-524.06C2737.78,-549.55 2690.84,-596.17 2640,-617.58 2510.68,-672.02 2069.53,-694.3 1936.37,-699.88"/>
<polygon fill="#666666" stroke="#666666" points="1936.53,-696.37 1926.68,-700.28 1936.82,-703.37 1936.53,-696.37"/>
</g>
<!-- Axioms&#45;&gt;TwoPoint -->
<g id="edge84" class="edge">
<title>Axioms&#45;&gt;TwoPoint</title>
<path fill="none" stroke="#666666" d="M2748.51,-509.47C2704.21,-514.13 2614.24,-523.59 2538,-531.58 2310.45,-555.4 2037.51,-583.84 1936.31,-594.38"/>
<polygon fill="#666666" stroke="#666666" points="1936.2,-590.87 1926.62,-595.39 1936.93,-597.83 1936.2,-590.87"/>
</g>
<!-- OS0_Analyticity&#45;&gt;Basic -->
<g id="edge86" class="edge">
<title>OS0_Analyticity&#45;&gt;Basic</title>
<path fill="none" stroke="#666666" d="M2428.57,-405.14C2314.46,-408.37 2080.5,-419.16 1886,-455.08 1738.13,-482.38 1651.35,-428.89 1561,-549.08 1547.56,-566.95 1541.71,-707.93 1562,-729.15 1568.76,-736.22 2836.94,-799.2 3076.28,-811.03"/>
<polygon fill="#666666" stroke="#666666" points="3075.84,-814.51 3086,-811.51 3076.19,-807.52 3075.84,-814.51"/>
</g>
<!-- OS0_Analyticity&#45;&gt;ComplexTestFunction -->
<g id="edge87" class="edge">
<title>OS0_Analyticity&#45;&gt;ComplexTestFunction</title>
<path fill="none" stroke="#666666" d="M2549.13,-421.18C2559.89,-424.36 2571.24,-427.36 2582,-429.58 2685.34,-450.82 2718.8,-419.17 2818,-455.08 2875.72,-475.97 2877.28,-505.81 2933,-531.58 2958.6,-543.42 2969.43,-535.23 2994,-549.08 3033.05,-571.08 3030.42,-593.15 3068,-617.58 3091.96,-633.15 3158.48,-660.61 3207.18,-679.84"/>
<polygon fill="#666666" stroke="#666666" points="3205.6,-682.98 3216.19,-683.38 3208.16,-676.46 3205.6,-682.98"/>
</g>
<!-- OS0_Analyticity&#45;&gt;Defs -->
<g id="edge90" class="edge">
<title>OS0_Analyticity&#45;&gt;Defs</title>
<path fill="none" stroke="#666666" d="M2480.1,-429.94C2447.3,-475.71 2372.87,-569.99 2286,-617.58 2169.78,-681.24 2009.24,-696.54 1936.53,-700.21"/>
<polygon fill="#666666" stroke="#666666" points="1936.57,-696.7 1926.74,-700.65 1936.89,-703.69 1936.57,-696.7"/>
</g>
<!-- OS0_Analyticity&#45;&gt;Construct -->
<g id="edge88" class="edge">
<title>OS0_Analyticity&#45;&gt;Construct</title>
<path fill="none" stroke="#666666" d="M2428.54,-404.39C2122.25,-407.26 904.34,-420.78 831,-455.08 820.18,-460.14 810.89,-469.24 803.68,-478.28"/>
<polygon fill="#666666" stroke="#666666" points="800.91,-476.14 797.83,-486.28 806.56,-480.27 800.91,-476.14"/>
</g>
<!-- OS0_Analyticity&#45;&gt;Axioms -->
<g id="edge89" class="edge">
<title>OS0_Analyticity&#45;&gt;Axioms</title>
<path fill="none" stroke="#666666" d="M2550.17,-420.83C2560.65,-423.96 2571.63,-427.04 2582,-429.58 2643.01,-444.48 2664.64,-427.35 2721,-455.08 2733,-460.98 2744.34,-470.27 2753.57,-479.22"/>
<polygon fill="#666666" stroke="#666666" points="2750.85,-481.45 2760.35,-486.14 2755.86,-476.55 2750.85,-481.45"/>
</g>
<!-- OS1_Regularity -->
<g id="node37" class="node">
<title>OS1_Regularity</title>
<polygon fill="white" stroke="black" points="2683.62,-420.79 2596.38,-420.79 2596.38,-384.79 2683.62,-384.79 2683.62,-420.79"/>
<text xml:space="preserve" text-anchor="middle" x="2640" y="-399.09" font-family="Times,serif" font-size="11.00">OS1_Regularity</text>
</g>
<!-- OS1_Regularity&#45;&gt;Basic -->
<g id="edge91" class="edge">
<title>OS1_Regularity&#45;&gt;Basic</title>
<path fill="none" stroke="#666666" d="M2604.99,-421.18C2597.54,-424.36 2589.62,-427.37 2582,-429.58 2432.5,-472.93 2043.86,-515.83 1889,-531.58 1854.79,-535.06 1603.62,-524.08 1580,-549.08 1563.7,-566.32 1561.26,-706.8 1583,-729.15 1589.72,-736.06 2838.14,-799.04 3076.08,-810.99"/>
<polygon fill="#666666" stroke="#666666" points="3075.89,-814.48 3086.05,-811.49 3076.24,-807.49 3075.89,-814.48"/>
</g>
<!-- OS1_Regularity&#45;&gt;Momentum -->
<g id="edge93" class="edge">
<title>OS1_Regularity&#45;&gt;Momentum</title>
<path fill="none" stroke="#666666" d="M2684.01,-412.92C2714.24,-418.78 2755.38,-425.95 2792,-429.58 2887.79,-439.07 3565.76,-427.54 3658,-455.08 3813.58,-501.52 3969.26,-624.27 4031.13,-676.87"/>
<polygon fill="#666666" stroke="#666666" points="4028.55,-679.27 4038.42,-683.12 4033.1,-673.95 4028.55,-679.27"/>
</g>
<!-- OS1_Regularity&#45;&gt;Position -->
<g id="edge92" class="edge">
<title>OS1_Regularity&#45;&gt;Position</title>
<path fill="none" stroke="#666666" d="M2684.01,-412.99C2714.23,-418.88 2755.37,-426.06 2792,-429.58 3034.06,-452.81 3645.77,-417.36 3886,-455.08 3931.36,-462.2 3981.66,-478.28 4015.08,-490.2"/>
<polygon fill="#666666" stroke="#666666" points="4013.72,-493.43 4024.32,-493.54 4016.11,-486.84 4013.72,-493.43"/>
</g>
<!-- OS1_Regularity&#45;&gt;RealForm -->
<g id="edge94" class="edge">
<title>OS1_Regularity&#45;&gt;RealForm</title>
<path fill="none" stroke="#666666" d="M2674.19,-384.32C2707.02,-367.7 2758.58,-344.51 2806.5,-335.14 2919.04,-313.16 2949.9,-331.24 3064.5,-335.14 3433.53,-347.72 3878.49,-386.54 4014.52,-398.94"/>
<polygon fill="#666666" stroke="#666666" points="4013.83,-402.39 4024.11,-399.82 4014.47,-395.42 4013.83,-402.39"/>
</g>
<!-- OS1_Regularity&#45;&gt;Construct -->
<g id="edge96" class="edge">
<title>OS1_Regularity&#45;&gt;Construct</title>
<path fill="none" stroke="#666666" d="M2607.05,-421.17C2599.06,-424.61 2590.39,-427.73 2582,-429.58 2486.98,-450.47 919.46,-414.58 831,-455.08 820.14,-460.05 810.84,-469.14 803.64,-478.19"/>
<polygon fill="#666666" stroke="#666666" points="800.86,-476.06 797.79,-486.2 806.51,-480.18 800.86,-476.06"/>
</g>
<!-- OS1_Regularity&#45;&gt;IsGaussian -->
<g id="edge95" class="edge">
<title>OS1_Regularity&#45;&gt;IsGaussian</title>
<path fill="none" stroke="#666666" d="M2606.39,-421.26C2598.58,-424.6 2590.15,-427.66 2582,-429.58 2416.28,-468.58 1173.16,-498.03 922.11,-503.62"/>
<polygon fill="#666666" stroke="#666666" points="922.35,-500.11 912.43,-503.83 922.51,-507.11 922.35,-500.11"/>
</g>
<!-- OS1_Regularity&#45;&gt;Axioms -->
<g id="edge97" class="edge">
<title>OS1_Regularity&#45;&gt;Axioms</title>
<path fill="none" stroke="#666666" d="M2670.04,-421.15C2685.66,-430.59 2704.82,-442.81 2721,-455.08 2730.83,-462.53 2741.02,-471.35 2749.92,-479.47"/>
<polygon fill="#666666" stroke="#666666" points="2747.51,-482.01 2757.22,-486.25 2752.27,-476.88 2747.51,-482.01"/>
</g>
<!-- OS2_Invariance -->
<g id="node38" class="node">
<title>OS2_Invariance</title>
<polygon fill="white" stroke="black" points="2894,-420.79 2806,-420.79 2806,-384.79 2894,-384.79 2894,-420.79"/>
<text xml:space="preserve" text-anchor="middle" x="2850" y="-399.09" font-family="Times,serif" font-size="11.00">OS2_Invariance</text>
</g>
<!-- OS2_Invariance&#45;&gt;Euclidean -->
<g id="edge99" class="edge">
<title>OS2_Invariance&#45;&gt;Euclidean</title>
<path fill="none" stroke="#666666" d="M2883.45,-421.28C2899.88,-430.48 2919.62,-442.45 2936,-455.08 2974.46,-484.72 2970.87,-509.28 3014,-531.58 3052.92,-551.69 3069.94,-533.81 3111,-549.08 3167.12,-569.94 3174.89,-588.08 3227,-617.58 3274.07,-644.22 3286.88,-649.01 3334,-675.58 3335.64,-676.5 3337.32,-677.45 3339.01,-678.42"/>
<polygon fill="#666666" stroke="#666666" points="3337.01,-681.31 3347.42,-683.27 3340.51,-675.24 3337.01,-681.31"/>
</g>
<!-- OS2_Invariance&#45;&gt;Position -->
<g id="edge98" class="edge">
<title>OS2_Invariance&#45;&gt;Position</title>
<path fill="none" stroke="#666666" d="M2894.37,-418.9C2908.75,-423.15 2924.9,-427.25 2940,-429.58 3355.68,-493.68 3470.61,-389.08 3886,-455.08 3931.35,-462.28 3981.65,-478.35 4015.08,-490.24"/>
<polygon fill="#666666" stroke="#666666" points="4013.72,-493.47 4024.31,-493.57 4016.1,-486.88 4013.72,-493.47"/>
</g>
<!-- OS2_Invariance&#45;&gt;IsGaussian -->
<g id="edge100" class="edge">
<title>OS2_Invariance&#45;&gt;IsGaussian</title>
<path fill="none" stroke="#666666" d="M2805.64,-412.84C2775.44,-418.63 2734.47,-425.75 2698,-429.58 2337.69,-467.41 1164.44,-497.6 922.06,-503.52"/>
<polygon fill="#666666" stroke="#666666" points="922.33,-500.01 912.42,-503.75 922.5,-507.01 922.33,-500.01"/>
</g>
<!-- OS2_Invariance&#45;&gt;GaussianFreeField -->
<g id="edge101" class="edge">
<title>OS2_Invariance&#45;&gt;GaussianFreeField</title>
<path fill="none" stroke="#666666" d="M2834.99,-384.35C2820.3,-367.88 2796.26,-344.89 2769.5,-335.14 2698.3,-309.2 2504.26,-333.51 2428.5,-335.14 1842.17,-347.79 1133.34,-387.01 922.79,-399.16"/>
<polygon fill="#666666" stroke="#666666" points="922.68,-395.66 912.9,-399.73 923.08,-402.65 922.68,-395.66"/>
</g>
<!-- OS3_MixedRepInfra -->
<g id="node39" class="node">
<title>OS3_MixedRepInfra</title>
<polygon fill="white" stroke="black" points="3063.5,-420.79 2954.5,-420.79 2954.5,-384.79 3063.5,-384.79 3063.5,-420.79"/>
<text xml:space="preserve" text-anchor="middle" x="3009" y="-399.09" font-family="Times,serif" font-size="11.00">OS3_MixedRepInfra</text>
</g>
<!-- OS3_MixedRepInfra&#45;&gt;FunctionalAnalysis -->
<g id="edge108" class="edge">
<title>OS3_MixedRepInfra&#45;&gt;FunctionalAnalysis</title>
<path fill="none" stroke="#666666" d="M3063.96,-404.22C3291.88,-406.28 4152.7,-416.58 4195,-455.08 4288.91,-540.53 4222.24,-717.25 4191.37,-785.35"/>
<polygon fill="#666666" stroke="#666666" points="4188.25,-783.76 4187.22,-794.3 4194.6,-786.7 4188.25,-783.76"/>
</g>
<!-- OS3_MixedRepInfra&#45;&gt;FourierTransforms -->
<g id="edge107" class="edge">
<title>OS3_MixedRepInfra&#45;&gt;FourierTransforms</title>
<path fill="none" stroke="#666666" d="M3063.84,-405.2C3299.42,-411.39 4214.69,-436.56 4238,-455.08 4338.95,-535.27 4322.91,-714.53 4312.16,-784.34"/>
<polygon fill="#666666" stroke="#666666" points="4308.71,-783.76 4310.55,-794.19 4315.62,-784.89 4308.71,-783.76"/>
</g>
<!-- OS3_MixedRepInfra&#45;&gt;LaplaceIntegral -->
<g id="edge109" class="edge">
<title>OS3_MixedRepInfra&#45;&gt;LaplaceIntegral</title>
<path fill="none" stroke="#666666" d="M3063.96,-405.21C3305.52,-411.56 4262.21,-437.77 4288,-455.08 4401.26,-531.06 4423.55,-713.58 4427.93,-784.28"/>
<polygon fill="#666666" stroke="#666666" points="4424.43,-784.45 4428.46,-794.25 4431.42,-784.08 4424.43,-784.45"/>
</g>
<!-- OS3_MixedRepInfra&#45;&gt;Basic -->
<g id="edge102" class="edge">
<title>OS3_MixedRepInfra&#45;&gt;Basic</title>
<path fill="none" stroke="#666666" d="M2954.1,-419.86C2939.55,-423.59 2923.78,-427.17 2909,-429.58 2828.96,-442.59 2617.5,-418.75 2545,-455.08 2504.85,-475.19 2519.64,-512.47 2479,-531.58 2434.7,-552.4 1632.27,-514.12 1598,-549.08 1579.08,-568.38 1585.36,-709.65 1605,-729.15 1611.74,-735.84 2840.83,-798.94 3076.27,-810.96"/>
<polygon fill="#666666" stroke="#666666" points="3075.96,-814.45 3086.12,-811.47 3076.31,-807.46 3075.96,-814.45"/>
</g>
<!-- OS3_MixedRepInfra&#45;&gt;Euclidean -->
<g id="edge106" class="edge">
<title>OS3_MixedRepInfra&#45;&gt;Euclidean</title>
<path fill="none" stroke="#666666" d="M3011.68,-421.28C3017.04,-449.63 3031.9,-505.09 3069,-531.58 3127.58,-573.4 3165.31,-517.51 3230,-549.08 3245.47,-556.63 3317.16,-634.24 3354.79,-675.65"/>
<polygon fill="#666666" stroke="#666666" points="3352.16,-677.96 3361.47,-683.02 3357.35,-673.26 3352.16,-677.96"/>
</g>
<!-- OS3_MixedRepInfra&#45;&gt;DiscreteSymmetry -->
<g id="edge105" class="edge">
<title>OS3_MixedRepInfra&#45;&gt;DiscreteSymmetry</title>
<path fill="none" stroke="#666666" d="M3063.96,-410.83C3111.54,-418.14 3181.54,-431.84 3239,-455.08 3299.38,-479.49 3303.01,-508.71 3364,-531.58 3407.48,-547.88 3424.48,-530.43 3467,-549.08 3480.67,-555.07 3494.01,-564.62 3504.95,-573.73"/>
<polygon fill="#666666" stroke="#666666" points="3502.55,-576.28 3512.39,-580.21 3507.15,-571 3502.55,-576.28"/>
</g>
<!-- OS3_MixedRepInfra&#45;&gt;Decomposition -->
<g id="edge114" class="edge">
<title>OS3_MixedRepInfra&#45;&gt;Decomposition</title>
<path fill="none" stroke="#666666" d="M3048.62,-421.21C3105.3,-446.06 3212.86,-492.94 3305,-531.58 3324.03,-539.55 3330.16,-538.71 3348,-549.08 3360.19,-556.15 3372.6,-565.38 3383.14,-573.95"/>
<polygon fill="#666666" stroke="#666666" points="3380.79,-576.55 3390.71,-580.27 3385.28,-571.18 3380.79,-576.55"/>
</g>
<!-- OS3_MixedRepInfra&#45;&gt;ProdIntegrable -->
<g id="edge111" class="edge">
<title>OS3_MixedRepInfra&#45;&gt;ProdIntegrable</title>
<path fill="none" stroke="#666666" d="M3031,-421.23C3042.31,-430.69 3056,-442.91 3067,-455.08 3095.08,-486.14 3085.8,-510.53 3122,-531.58 3185.76,-568.64 3220.51,-517.17 3287,-549.08 3325.68,-567.63 3320.69,-591.83 3355,-617.58 3387.59,-642.03 3428.21,-663.82 3459.55,-679.04"/>
<polygon fill="#666666" stroke="#666666" points="3457.9,-682.14 3468.43,-683.3 3460.92,-675.82 3457.9,-682.14"/>
</g>
<!-- OS3_MixedRepInfra&#45;&gt;Tonelli -->
<g id="edge112" class="edge">
<title>OS3_MixedRepInfra&#45;&gt;Tonelli</title>
<path fill="none" stroke="#666666" d="M3063.91,-407.33C3131.99,-412.79 3251.03,-425.87 3349,-455.08 3373.41,-462.35 3399.39,-474.12 3419.76,-484.36"/>
<polygon fill="#666666" stroke="#666666" points="3418.02,-487.4 3428.51,-488.86 3421.21,-481.18 3418.02,-487.4"/>
</g>
<!-- OS3_MixedRepInfra&#45;&gt;Momentum -->
<g id="edge104" class="edge">
<title>OS3_MixedRepInfra&#45;&gt;Momentum</title>
<path fill="none" stroke="#666666" d="M3063.77,-404.24C3244.48,-406.12 3814.39,-415.17 3886,-455.08 3974.24,-504.25 4027.86,-619.6 4048.83,-673.14"/>
<polygon fill="#666666" stroke="#666666" points="4045.55,-674.36 4052.38,-682.46 4052.1,-671.87 4045.55,-674.36"/>
</g>
<!-- OS3_MixedRepInfra&#45;&gt;Position -->
<g id="edge103" class="edge">
<title>OS3_MixedRepInfra&#45;&gt;Position</title>
<path fill="none" stroke="#666666" d="M3063.92,-404.31C3259.95,-406.49 3918.16,-416.64 4004,-455.08 4015.71,-460.32 4026.13,-469.72 4034.32,-478.93"/>
<polygon fill="#666666" stroke="#666666" points="4031.42,-480.91 4040.49,-486.39 4036.81,-476.45 4031.42,-480.91"/>
</g>
<!-- OS3_MixedRepInfra&#45;&gt;Defs -->
<g id="edge113" class="edge">
<title>OS3_MixedRepInfra&#45;&gt;Defs</title>
<path fill="none" stroke="#666666" d="M2954.23,-419.04C2939.6,-422.8 2923.76,-426.6 2909,-429.58 2832.38,-445.02 2810.25,-433.94 2735,-455.08 2557.37,-504.97 2529.68,-564.44 2353,-617.58 2202.47,-662.85 2016.18,-687.87 1936.78,-697.14"/>
<polygon fill="#666666" stroke="#666666" points="1936.46,-693.66 1926.92,-698.28 1937.26,-700.61 1936.46,-693.66"/>
</g>
<!-- OS3_MixedRepInfra&#45;&gt;Axioms -->
<g id="edge110" class="edge">
<title>OS3_MixedRepInfra&#45;&gt;Axioms</title>
<path fill="none" stroke="#666666" d="M2968.68,-421.23C2925.19,-440.04 2856.46,-469.77 2813.92,-488.17"/>
<polygon fill="#666666" stroke="#666666" points="2812.62,-484.92 2804.83,-492.1 2815.4,-491.35 2812.62,-484.92"/>
</g>
<!-- OS3_MixedRep -->
<g id="node40" class="node">
<title>OS3_MixedRep</title>
<polygon fill="white" stroke="black" points="3032.62,-318 2945.38,-318 2945.38,-282 3032.62,-282 3032.62,-318"/>
<text xml:space="preserve" text-anchor="middle" x="2989" y="-296.3" font-family="Times,serif" font-size="11.00">OS3_MixedRep</text>
</g>
<!-- OS3_MixedRep&#45;&gt;OS3_MixedRepInfra -->
<g id="edge115" class="edge">
<title>OS3_MixedRep&#45;&gt;OS3_MixedRepInfra</title>
<path fill="none" stroke="#666666" d="M2992.39,-318.1C2995.4,-333.23 2999.84,-355.61 3003.37,-373.42"/>
<polygon fill="#666666" stroke="#666666" points="2999.92,-373.99 3005.3,-383.12 3006.78,-372.63 2999.92,-373.99"/>
</g>
<!-- OS3_CovarianceRP -->
<g id="node41" class="node">
<title>OS3_CovarianceRP</title>
<polygon fill="white" stroke="black" points="3063.62,-224 2958.38,-224 2958.38,-188 3063.62,-188 3063.62,-224"/>
<text xml:space="preserve" text-anchor="middle" x="3011" y="-202.3" font-family="Times,serif" font-size="11.00">OS3_CovarianceRP</text>
</g>
<!-- OS3_CovarianceRP&#45;&gt;FourierTransforms -->
<g id="edge119" class="edge">
<title>OS3_CovarianceRP&#45;&gt;FourierTransforms</title>
<path fill="none" stroke="#666666" d="M3064.08,-207.28C3347.02,-209.04 4667.14,-220.51 4726,-282 4795.07,-354.16 4754.68,-662.81 4680,-729.15 4628.35,-775.03 4435.05,-737.53 4371,-763.44 4357.06,-769.08 4343.59,-778.65 4332.63,-787.89"/>
<polygon fill="#666666" stroke="#666666" points="4330.37,-785.22 4325.2,-794.47 4335.01,-790.46 4330.37,-785.22"/>
</g>
<!-- OS3_CovarianceRP&#45;&gt;Basic -->
<g id="edge116" class="edge">
<title>OS3_CovarianceRP&#45;&gt;Basic</title>
<path fill="none" stroke="#666666" d="M2957.95,-209.75C2608.87,-227.88 654.64,-330.35 634,-352.29 579.4,-410.33 614.28,-454.37 634,-531.58 644.78,-573.78 645.23,-592.73 681,-617.58 828.89,-720.31 920.12,-596.69 1082,-675.58 1112.96,-690.67 1106.26,-715.77 1138,-729.15 1239.11,-771.78 2015.37,-758.79 2125,-763.44 2495.56,-779.14 2943.86,-803.49 3076.37,-810.8"/>
<polygon fill="#666666" stroke="#666666" points="3076.15,-814.29 3086.33,-811.35 3076.54,-807.3 3076.15,-814.29"/>
</g>
<!-- OS3_CovarianceRP&#45;&gt;PositiveTimeTestFunction -->
<g id="edge123" class="edge">
<title>OS3_CovarianceRP&#45;&gt;PositiveTimeTestFunction</title>
<path fill="none" stroke="#666666" d="M3048.02,-224.42C3130.31,-263.44 3334.2,-361.8 3499,-455.08 3513.39,-463.22 3528.89,-472.75 3542.31,-481.27"/>
<polygon fill="#666666" stroke="#666666" points="3540.08,-484 3550.39,-486.43 3543.85,-478.1 3540.08,-484"/>
</g>
<!-- OS3_CovarianceRP&#45;&gt;Momentum -->
<g id="edge118" class="edge">
<title>OS3_CovarianceRP&#45;&gt;Momentum</title>
<path fill="none" stroke="#666666" d="M3063.95,-207.46C3334.66,-210.05 4553.51,-224.89 4608,-282 4711.92,-390.92 4684.32,-529.82 4562,-617.58 4488.61,-670.23 4212.61,-692.18 4103.64,-698.92"/>
<polygon fill="#666666" stroke="#666666" points="4103.7,-695.41 4093.93,-699.5 4104.12,-702.4 4103.7,-695.41"/>
</g>
<!-- OS3_CovarianceRP&#45;&gt;Position -->
<g id="edge117" class="edge">
<title>OS3_CovarianceRP&#45;&gt;Position</title>
<path fill="none" stroke="#666666" d="M3064.04,-208.49C3283.95,-214.92 4114.35,-241.79 4152,-282 4196.83,-329.88 4181.19,-370.84 4152,-429.58 4139.1,-455.53 4112.45,-474.91 4090.05,-487.46"/>
<polygon fill="#666666" stroke="#666666" points="4088.64,-484.24 4081.46,-492.03 4091.93,-490.42 4088.64,-484.24"/>
</g>
<!-- OS3_CovarianceRP&#45;&gt;Parseval -->
<g id="edge122" class="edge">
<title>OS3_CovarianceRP&#45;&gt;Parseval</title>
<path fill="none" stroke="#666666" d="M3064.07,-208.42C3288.06,-214.64 4146.52,-241.1 4186,-282 4264.56,-363.38 4176.18,-511.89 4134.42,-572.14"/>
<polygon fill="#666666" stroke="#666666" points="4131.7,-569.92 4128.79,-580.11 4137.42,-573.96 4131.7,-569.92"/>
</g>
<!-- OS3_CovarianceRP&#45;&gt;OS3_MixedRepInfra -->
<g id="edge121" class="edge">
<title>OS3_CovarianceRP&#45;&gt;OS3_MixedRepInfra</title>
<path fill="none" stroke="#666666" d="M3022.11,-224.36C3030.81,-239.05 3042.22,-261.02 3047,-282 3054.38,-314.43 3039.5,-350.71 3026.25,-374.76"/>
<polygon fill="#666666" stroke="#666666" points="3023.3,-372.87 3021.31,-383.27 3029.36,-376.38 3023.3,-372.87"/>
</g>
<!-- OS3_CovarianceRP&#45;&gt;OS3_MixedRep -->
<g id="edge120" class="edge">
<title>OS3_CovarianceRP&#45;&gt;OS3_MixedRep</title>
<path fill="none" stroke="#666666" d="M3006.86,-224.3C3003.73,-237.41 2999.36,-255.69 2995.72,-270.89"/>
<polygon fill="#666666" stroke="#666666" points="2992.39,-269.76 2993.47,-280.3 2999.2,-271.39 2992.39,-269.76"/>
</g>
<!-- OS3_ReflectionPositivity -->
<g id="node42" class="node">
<title>OS3_ReflectionPositivity</title>
<polygon fill="white" stroke="black" points="2979.25,-130 2850.75,-130 2850.75,-94 2979.25,-94 2979.25,-130"/>
<text xml:space="preserve" text-anchor="middle" x="2915" y="-108.3" font-family="Times,serif" font-size="11.00">OS3_ReflectionPositivity</text>
</g>
<!-- OS3_ReflectionPositivity&#45;&gt;HadamardExp -->
<g id="edge129" class="edge">
<title>OS3_ReflectionPositivity&#45;&gt;HadamardExp</title>
<path fill="none" stroke="#666666" d="M2850.31,-113.63C2520.29,-117.04 1021.92,-135.23 560,-188 307.91,-216.8 0,-45.27 0,-299 0,-299 0,-299 0,-703.36 0,-1012.85 373.57,-813.09 681,-848.73 1013.02,-887.22 3503.17,-911.63 3895.13,-915.26"/>
<polygon fill="#666666" stroke="#666666" points="3895.09,-918.76 3905.12,-915.35 3895.16,-911.76 3895.09,-918.76"/>
</g>
<!-- OS3_ReflectionPositivity&#45;&gt;Basic -->
<g id="edge124" class="edge">
<title>OS3_ReflectionPositivity&#45;&gt;Basic</title>
<path fill="none" stroke="#666666" d="M2850.31,-112.98C2503.07,-113.13 868.06,-117.63 655,-188 585.23,-211.04 553.31,-217.03 519,-282 467.2,-380.08 501.19,-421.93 518,-531.58 524.07,-571.17 514.6,-591.48 545,-617.58 673.96,-728.29 778.37,-586.29 923,-675.58 947.84,-690.91 935.27,-715.37 961,-729.15 1018.03,-759.69 2060.36,-760.87 2125,-763.44 2495.6,-778.16 2943.87,-803.18 3076.37,-810.72"/>
<polygon fill="#666666" stroke="#666666" points="3076.15,-814.22 3086.33,-811.29 3076.55,-807.23 3076.15,-814.22"/>
</g>
<!-- OS3_ReflectionPositivity&#45;&gt;DiscreteSymmetry -->
<g id="edge126" class="edge">
<title>OS3_ReflectionPositivity&#45;&gt;DiscreteSymmetry</title>
<path fill="none" stroke="#666666" d="M2979.5,-124.47C3108.5,-149.26 3386,-212.62 3386,-299 3386,-299 3386,-299 3386,-403.79 3386,-462.13 3376.86,-488.31 3416,-531.58 3432.08,-549.35 3445.91,-537.7 3467,-549.08 3479.75,-555.95 3492.61,-565.32 3503.43,-574.06"/>
<polygon fill="#666666" stroke="#666666" points="3500.9,-576.5 3510.82,-580.21 3505.38,-571.12 3500.9,-576.5"/>
</g>
<!-- OS3_ReflectionPositivity&#45;&gt;PositiveTimeTestFunction -->
<g id="edge132" class="edge">
<title>OS3_ReflectionPositivity&#45;&gt;PositiveTimeTestFunction</title>
<path fill="none" stroke="#666666" d="M2979.3,-115.73C3096.73,-121.85 3340.09,-140.08 3408,-188 3510,-259.97 3556.41,-412.85 3571.81,-476.18"/>
<polygon fill="#666666" stroke="#666666" points="3568.38,-476.85 3574.07,-485.79 3575.19,-475.26 3568.38,-476.85"/>
</g>
<!-- OS3_ReflectionPositivity&#45;&gt;RealForm -->
<g id="edge125" class="edge">
<title>OS3_ReflectionPositivity&#45;&gt;RealForm</title>
<path fill="none" stroke="#666666" d="M2979.71,-114.06C3306.16,-119.57 4764.42,-146.33 4962,-188 5072.47,-211.3 5134.64,-188.56 5198,-282 5206.98,-295.24 5208.89,-306.28 5198,-318 5121.74,-400.06 4294.5,-402.57 4097.79,-402"/>
<polygon fill="#666666" stroke="#666666" points="4098.06,-398.5 4088.05,-401.97 4098.04,-405.5 4098.06,-398.5"/>
</g>
<!-- OS3_ReflectionPositivity&#45;&gt;Construct -->
<g id="edge128" class="edge">
<title>OS3_ReflectionPositivity&#45;&gt;Construct</title>
<path fill="none" stroke="#666666" d="M2850.35,-112.95C2545.55,-113.07 1250.4,-117.77 853,-188 719.58,-211.58 669.83,-198.66 563,-282 509.03,-324.1 477.64,-375.05 519,-429.58 546.47,-465.78 678.28,-489.28 746.25,-499.19"/>
<polygon fill="#666666" stroke="#666666" points="745.49,-502.62 755.88,-500.56 746.47,-495.68 745.49,-502.62"/>
</g>
<!-- OS3_ReflectionPositivity&#45;&gt;IsGaussian -->
<g id="edge127" class="edge">
<title>OS3_ReflectionPositivity&#45;&gt;IsGaussian</title>
<path fill="none" stroke="#666666" d="M2850.45,-112.67C2523.81,-111.78 1052.15,-117.14 632,-282 560.91,-309.89 492.45,-373.24 544,-429.58 587.23,-476.81 773.34,-427.23 831,-455.08 842.04,-460.41 851.84,-469.52 859.59,-478.49"/>
<polygon fill="#666666" stroke="#666666" points="856.7,-480.47 865.69,-486.07 862.15,-476.09 856.7,-480.47"/>
</g>
<!-- OS3_ReflectionPositivity&#45;&gt;Axioms -->
<g id="edge131" class="edge">
<title>OS3_ReflectionPositivity&#45;&gt;Axioms</title>
<path fill="none" stroke="#666666" d="M2916.88,-130.44C2922.86,-189.15 2939.36,-378.72 2909,-429.58 2888.4,-464.09 2845.55,-484.03 2814.03,-494.55"/>
<polygon fill="#666666" stroke="#666666" points="2813.34,-491.1 2804.85,-497.43 2815.44,-497.78 2813.34,-491.1"/>
</g>
<!-- OS3_ReflectionPositivity&#45;&gt;OS3_CovarianceRP -->
<g id="edge130" class="edge">
<title>OS3_ReflectionPositivity&#45;&gt;OS3_CovarianceRP</title>
<path fill="none" stroke="#666666" d="M2933.06,-130.3C2947.67,-144.31 2968.45,-164.23 2984.88,-179.97"/>
<polygon fill="#666666" stroke="#666666" points="2982.29,-182.33 2991.93,-186.73 2987.13,-177.28 2982.29,-182.33"/>
</g>
<!-- OS4_MGF -->
<g id="node43" class="node">
<title>OS4_MGF</title>
<polygon fill="white" stroke="black" points="2499.38,-318 2434.62,-318 2434.62,-282 2499.38,-282 2499.38,-318"/>
<text xml:space="preserve" text-anchor="middle" x="2467" y="-296.3" font-family="Times,serif" font-size="11.00">OS4_MGF</text>
</g>
<!-- OS4_MGF&#45;&gt;Basic -->
<g id="edge133" class="edge">
<title>OS4_MGF&#45;&gt;Basic</title>
<path fill="none" stroke="#666666" d="M2434.38,-302.33C2359.09,-305.37 2167.35,-312.96 2007,-318 1970.17,-319.16 706.71,-325.9 681,-352.29 625.39,-409.36 626.7,-473.26 681,-531.58 699.6,-551.55 899.57,-542.27 926,-549.08 990.95,-565.79 1144.24,-638.31 1200,-675.58 1229.18,-695.07 1225.58,-715.72 1258,-729.15 1347.07,-766.04 2028.69,-759.13 2125,-763.44 2495.52,-780.03 2943.85,-803.77 3076.36,-810.86"/>
<polygon fill="#666666" stroke="#666666" points="3076.15,-814.36 3086.33,-811.4 3076.53,-807.37 3076.15,-814.36"/>
</g>
<!-- OS4_MGF&#45;&gt;ComplexTestFunction -->
<g id="edge134" class="edge">
<title>OS4_MGF&#45;&gt;ComplexTestFunction</title>
<path fill="none" stroke="#666666" d="M2441.43,-318.43C2430.83,-327.21 2419.7,-338.85 2414,-352.29 2400.59,-383.91 2394.09,-401.58 2414,-429.58 2507.81,-561.47 2606.22,-492.86 2758,-549.08 2835.94,-577.94 2852.53,-593.23 2932,-617.58 3045.2,-652.25 3078.34,-642.41 3192,-675.58 3197.01,-677.04 3202.17,-678.67 3207.33,-680.38"/>
<polygon fill="#666666" stroke="#666666" points="3205.81,-683.56 3216.4,-683.48 3208.08,-676.93 3205.81,-683.56"/>
</g>
<!-- OS4_MGF&#45;&gt;TimeTranslation -->
<g id="edge142" class="edge">
<title>OS4_MGF&#45;&gt;TimeTranslation</title>
<path fill="none" stroke="#666666" d="M2434.24,-307.51C2409.95,-314.25 2378.47,-327.41 2363,-352.29 2344.86,-381.46 2345.35,-400.11 2363,-429.58 2453.91,-581.4 2547.43,-557.8 2714,-617.58 2839.24,-662.52 2994.68,-685.62 3076.51,-695.42"/>
<polygon fill="#666666" stroke="#666666" points="3075.96,-698.88 3086.3,-696.56 3076.77,-691.92 3075.96,-698.88"/>
</g>
<!-- OS4_MGF&#45;&gt;Momentum -->
<g id="edge135" class="edge">
<title>OS4_MGF&#45;&gt;Momentum</title>
<path fill="none" stroke="#666666" d="M2499.62,-302.28C2575.38,-305.23 2769.06,-312.66 2931,-318 2995.99,-320.14 4049.69,-312.34 4101,-352.29 4196.09,-426.31 4207.42,-508.13 4157,-617.58 4145.3,-642.96 4121.7,-663.52 4100.59,-677.92"/>
<polygon fill="#666666" stroke="#666666" points="4098.85,-674.87 4092.38,-683.27 4102.67,-680.74 4098.85,-674.87"/>
</g>
<!-- OS4_MGF&#45;&gt;Defs -->
<g id="edge141" class="edge">
<title>OS4_MGF&#45;&gt;Defs</title>
<path fill="none" stroke="#666666" d="M2434.45,-302.56C2370.2,-306.35 2230.53,-318.38 2199,-352.29 2118.17,-439.22 2243.85,-526.26 2168,-617.58 2110.38,-686.95 1996.37,-699.9 1936.61,-701.69"/>
<polygon fill="#666666" stroke="#666666" points="1936.86,-698.18 1926.93,-701.88 1936.99,-705.18 1936.86,-698.18"/>
</g>
<!-- OS4_MGF&#45;&gt;Construct -->
<g id="edge137" class="edge">
<title>OS4_MGF&#45;&gt;Construct</title>
<path fill="none" stroke="#666666" d="M2434.38,-302.31C2359.08,-305.3 2167.35,-312.81 2007,-318 1972.78,-319.11 798.87,-327.75 775,-352.29 743.13,-385.05 759.61,-442.73 773.79,-476.92"/>
<polygon fill="#666666" stroke="#666666" points="770.43,-477.98 777.64,-485.74 776.85,-475.18 770.43,-477.98"/>
</g>
<!-- OS4_MGF&#45;&gt;IsGaussian -->
<g id="edge136" class="edge">
<title>OS4_MGF&#45;&gt;IsGaussian</title>
<path fill="none" stroke="#666666" d="M2434.38,-302.3C2359.08,-305.29 2167.35,-312.77 2007,-318 1973.39,-319.1 820.44,-328.18 797,-352.29 773.06,-376.92 781.64,-398.85 797,-429.58 805.45,-446.47 816.89,-442.52 831,-455.08 839.32,-462.48 847.87,-471.12 855.35,-479.09"/>
<polygon fill="#666666" stroke="#666666" points="852.62,-481.3 861.97,-486.28 857.77,-476.55 852.62,-481.3"/>
</g>
<!-- OS4_MGF&#45;&gt;Axioms -->
<g id="edge140" class="edge">
<title>OS4_MGF&#45;&gt;Axioms</title>
<path fill="none" stroke="#666666" d="M2499.44,-304.75C2555.46,-311.77 2667.27,-328.39 2698,-352.29 2728.37,-375.91 2719.46,-395.33 2737,-429.58 2745.1,-445.4 2754.27,-463.04 2761.68,-477.23"/>
<polygon fill="#666666" stroke="#666666" points="2758.52,-478.75 2766.25,-485.99 2764.73,-475.5 2758.52,-478.75"/>
</g>
<!-- OS4_MGF&#45;&gt;OS0_Analyticity -->
<g id="edge138" class="edge">
<title>OS4_MGF&#45;&gt;OS0_Analyticity</title>
<path fill="none" stroke="#666666" d="M2472.26,-318.1C2476.22,-330.97 2481.79,-349.08 2486.73,-365.16"/>
<polygon fill="#666666" stroke="#666666" points="2483.3,-365.91 2489.59,-374.44 2489.99,-363.85 2483.3,-365.91"/>
</g>
<!-- OS4_MGF&#45;&gt;OS2_Invariance -->
<g id="edge139" class="edge">
<title>OS4_MGF&#45;&gt;OS2_Invariance</title>
<path fill="none" stroke="#666666" d="M2499.63,-305.74C2548.55,-313.24 2643.53,-329.41 2722,-352.29 2748.18,-359.92 2776.54,-370.63 2799.9,-380.13"/>
<polygon fill="#666666" stroke="#666666" points="2798.27,-383.24 2808.85,-383.82 2800.94,-376.77 2798.27,-383.24"/>
</g>
<!-- OS4_Clustering -->
<g id="node44" class="node">
<title>OS4_Clustering</title>
<polygon fill="white" stroke="black" points="2515.25,-224 2428.75,-224 2428.75,-188 2515.25,-188 2515.25,-224"/>
<text xml:space="preserve" text-anchor="middle" x="2472" y="-202.3" font-family="Times,serif" font-size="11.00">OS4_Clustering</text>
</g>
<!-- OS4_Clustering&#45;&gt;FunctionalAnalysis -->
<g id="edge147" class="edge">
<title>OS4_Clustering&#45;&gt;FunctionalAnalysis</title>
<path fill="none" stroke="#666666" d="M2515.44,-220.98C2520.31,-222.18 2525.24,-223.22 2530,-224 3198.56,-332.98 3383.63,-178.16 4053,-282 4338.25,-326.25 4504.19,-225.37 4679,-455.08 4725.72,-516.46 4678.83,-570.13 4618,-617.58 4476.99,-727.56 4398.99,-676 4243,-763.44 4230.34,-770.54 4217.41,-779.87 4206.45,-788.52"/>
<polygon fill="#666666" stroke="#666666" points="4204.51,-785.59 4198.94,-794.61 4208.91,-791.03 4204.51,-785.59"/>
</g>
<!-- OS4_Clustering&#45;&gt;QuantitativeDecay -->
<g id="edge154" class="edge">
<title>OS4_Clustering&#45;&gt;QuantitativeDecay</title>
<path fill="none" stroke="#666666" d="M2515.43,-221.01C2520.31,-222.2 2525.23,-223.24 2530,-224 3306.29,-348.45 3517.35,-188.73 4298,-282 4450.35,-300.2 4495.43,-290.78 4636,-352.29 4729.63,-393.26 4814.24,-435.28 4780,-531.58 4740.11,-643.77 4634.24,-743.71 4581.6,-788.3"/>
<polygon fill="#666666" stroke="#666666" points="4579.61,-785.4 4574.18,-794.51 4584.1,-790.77 4579.61,-785.4"/>
</g>
<!-- OS4_Clustering&#45;&gt;Basic -->
<g id="edge143" class="edge">
<title>OS4_Clustering&#45;&gt;Basic</title>
<path fill="none" stroke="#666666" d="M2428.32,-207.51C2156,-210.82 699.95,-230.88 622,-282 496.98,-363.97 496.77,-508.5 599,-617.58 711.32,-737.43 816.85,-602.59 964,-675.58 994.86,-690.88 988.24,-715.83 1020,-729.15 1133.28,-776.66 2002.26,-758.47 2125,-763.44 2495.59,-778.45 2943.87,-803.27 3076.37,-810.74"/>
<polygon fill="#666666" stroke="#666666" points="3076.15,-814.24 3086.33,-811.31 3076.54,-807.25 3076.15,-814.24"/>
</g>
<!-- OS4_Clustering&#45;&gt;ComplexTestFunction -->
<g id="edge144" class="edge">
<title>OS4_Clustering&#45;&gt;ComplexTestFunction</title>
<path fill="none" stroke="#666666" d="M2446.23,-224.37C2413.41,-248.44 2359,-295.47 2343,-352.29 2321.24,-429.56 2311.67,-471.57 2365,-531.58 2496.42,-679.45 3102.79,-655.22 3192,-675.58 3197.83,-676.91 3203.84,-678.58 3209.78,-680.44"/>
<polygon fill="#666666" stroke="#666666" points="3208.31,-683.64 3218.9,-683.46 3210.51,-676.99 3208.31,-683.64"/>
</g>
<!-- OS4_Clustering&#45;&gt;TimeTranslation -->
<g id="edge156" class="edge">
<title>OS4_Clustering&#45;&gt;TimeTranslation</title>
<path fill="none" stroke="#666666" d="M2428.32,-209.08C2371,-213.88 2269.83,-229.73 2203,-282 2109.13,-355.42 2050.76,-425.47 2105,-531.58 2134.7,-589.68 2162.9,-594.66 2224,-617.58 2381.56,-676.68 2903.27,-695.38 3076.52,-700.04"/>
<polygon fill="#666666" stroke="#666666" points="3076.3,-703.54 3086.39,-700.3 3076.49,-696.54 3076.3,-703.54"/>
</g>
<!-- OS4_Clustering&#45;&gt;Momentum -->
<g id="edge146" class="edge">
<title>OS4_Clustering&#45;&gt;Momentum</title>
<path fill="none" stroke="#666666" d="M2515.44,-220.97C2520.31,-222.17 2525.24,-223.22 2530,-224 3154.15,-326.61 3330.42,-164.85 3952,-282 4046.24,-299.76 4085.24,-287.56 4156,-352.29 4243.75,-432.56 4254.8,-517.21 4191,-617.58 4170.49,-649.85 4132.57,-671.98 4102.62,-685.35"/>
<polygon fill="#666666" stroke="#666666" points="4101.61,-681.98 4093.79,-689.13 4104.36,-688.41 4101.61,-681.98"/>
</g>
<!-- OS4_Clustering&#45;&gt;Position -->
<g id="edge145" class="edge">
<title>OS4_Clustering&#45;&gt;Position</title>
<path fill="none" stroke="#666666" d="M2515.47,-220.77C2520.34,-222.01 2525.25,-223.12 2530,-224 2702.2,-255.92 3982.31,-223.51 4101,-352.29 4133.63,-387.69 4099.89,-445.15 4074.82,-478.44"/>
<polygon fill="#666666" stroke="#666666" points="4072.35,-475.92 4068.97,-485.96 4077.88,-480.21 4072.35,-475.92"/>
</g>
<!-- OS4_Clustering&#45;&gt;Defs -->
<g id="edge155" class="edge">
<title>OS4_Clustering&#45;&gt;Defs</title>
<path fill="none" stroke="#666666" d="M2428.63,-208.92C2293.03,-215.36 1883.8,-238.29 1845,-282 1769.34,-367.25 1819.55,-455.03 1904,-531.58 1934.84,-559.53 1969.46,-517.01 1996,-549.08 2015.41,-572.53 2008.74,-589.92 1996,-617.58 1983.44,-644.85 1957.13,-666.55 1934.93,-681.02"/>
<polygon fill="#666666" stroke="#666666" points="1933.32,-677.9 1926.69,-686.17 1937.03,-683.84 1933.32,-677.9"/>
</g>
<!-- OS4_Clustering&#45;&gt;Construct -->
<g id="edge149" class="edge">
<title>OS4_Clustering&#45;&gt;Construct</title>
<path fill="none" stroke="#666666" d="M2428.59,-207.15C2166.9,-208.3 805.16,-217.35 632,-282 560.46,-308.71 498.66,-368.13 544,-429.58 568.19,-462.35 683.75,-486.84 746.4,-497.96"/>
<polygon fill="#666666" stroke="#666666" points="745.5,-501.36 755.95,-499.63 746.7,-494.46 745.5,-501.36"/>
</g>
<!-- OS4_Clustering&#45;&gt;IsGaussian -->
<g id="edge148" class="edge">
<title>OS4_Clustering&#45;&gt;IsGaussian</title>
<path fill="none" stroke="#666666" d="M2428.38,-206.87C2156.24,-206.52 698.69,-211.25 568,-352.29 544.65,-377.48 544.91,-404.14 568,-429.58 607.47,-473.05 778.23,-429.33 831,-455.08 842.02,-460.45 851.82,-469.58 859.57,-478.53"/>
<polygon fill="#666666" stroke="#666666" points="856.67,-480.51 865.67,-486.11 862.13,-476.13 856.67,-480.51"/>
</g>
<!-- OS4_Clustering&#45;&gt;GaussianFreeField -->
<g id="edge150" class="edge">
<title>OS4_Clustering&#45;&gt;GaussianFreeField</title>
<path fill="none" stroke="#666666" d="M2428.63,-211.44C2320.21,-222.6 2028.68,-253.02 1786,-282 1460.25,-320.9 1070.76,-373.25 922.44,-393.4"/>
<polygon fill="#666666" stroke="#666666" points="922.28,-389.89 912.84,-394.71 923.22,-396.83 922.28,-389.89"/>
</g>
<!-- OS4_Clustering&#45;&gt;Axioms -->
<g id="edge153" class="edge">
<title>OS4_Clustering&#45;&gt;Axioms</title>
<path fill="none" stroke="#666666" d="M2515.32,-220.74C2571.75,-240.8 2669.81,-283.4 2726,-352.29 2734,-362.1 2755.89,-434.9 2767.88,-476.19"/>
<polygon fill="#666666" stroke="#666666" points="2764.49,-477.08 2770.63,-485.71 2771.22,-475.14 2764.49,-477.08"/>
</g>
<!-- OS4_Clustering&#45;&gt;OS2_Invariance -->
<g id="edge151" class="edge">
<title>OS4_Clustering&#45;&gt;OS2_Invariance</title>
<path fill="none" stroke="#666666" d="M2515.69,-219.83C2586.13,-240.56 2717.41,-279.36 2722,-282 2765.14,-306.81 2805.39,-348.8 2828.85,-375.9"/>
<polygon fill="#666666" stroke="#666666" points="2826.01,-377.96 2835.15,-383.32 2831.34,-373.43 2826.01,-377.96"/>
</g>
<!-- OS4_Clustering&#45;&gt;OS4_MGF -->
<g id="edge152" class="edge">
<title>OS4_Clustering&#45;&gt;OS4_MGF</title>
<path fill="none" stroke="#666666" d="M2471.06,-224.3C2470.35,-237.28 2469.37,-255.34 2468.55,-270.44"/>
<polygon fill="#666666" stroke="#666666" points="2465.07,-270.09 2468.02,-280.26 2472.06,-270.47 2465.07,-270.09"/>
</g>
<!-- OS4_Ergodicity -->
<g id="node45" class="node">
<title>OS4_Ergodicity</title>
<polygon fill="white" stroke="black" points="2631.25,-224 2544.75,-224 2544.75,-188 2631.25,-188 2631.25,-224"/>
<text xml:space="preserve" text-anchor="middle" x="2588" y="-202.3" font-family="Times,serif" font-size="11.00">OS4_Ergodicity</text>
</g>
<!-- OS4_Ergodicity&#45;&gt;SchwartzTranslationDecay -->
<g id="edge167" class="edge">
<title>OS4_Ergodicity&#45;&gt;SchwartzTranslationDecay</title>
<path fill="none" stroke="#666666" d="M2631.56,-209.25C2698.65,-212.68 2831.33,-219.3 2944,-224 3305.69,-239.08 4215.8,-217.44 4572,-282 4668.84,-299.55 4708.56,-286.77 4782,-352.29 4947.54,-499.97 4876.83,-682.42 4730,-848.73 4712.55,-868.49 4687.88,-883.2 4664.65,-893.73"/>
<polygon fill="#666666" stroke="#666666" points="4663.3,-890.51 4655.5,-897.68 4666.07,-896.93 4663.3,-890.51"/>
</g>
<!-- OS4_Ergodicity&#45;&gt;L2TimeIntegral -->
<g id="edge162" class="edge">
<title>OS4_Ergodicity&#45;&gt;L2TimeIntegral</title>
<path fill="none" stroke="#666666" d="M2631.56,-209.21C2698.66,-212.58 2831.34,-219.13 2944,-224 3610.1,-252.79 3783.06,-187.16 4443,-282 4569.57,-300.19 4614.08,-283.69 4722,-352.29 4796.26,-399.49 4820.25,-444.74 4806,-531.58 4789.42,-632.62 4724.5,-738.26 4691.9,-786.31"/>
<polygon fill="#666666" stroke="#666666" points="4689.1,-784.2 4686.32,-794.42 4694.87,-788.17 4689.1,-784.2"/>
</g>
<!-- OS4_Ergodicity&#45;&gt;Basic -->
<g id="edge157" class="edge">
<title>OS4_Ergodicity&#45;&gt;Basic</title>
<path fill="none" stroke="#666666" d="M2544.57,-221.01C2539.69,-222.2 2534.77,-223.24 2530,-224 2143.17,-286.03 1150.96,-199.38 768,-282 688.08,-299.24 643.44,-284.32 598,-352.29 589.23,-365.41 602.42,-522.95 604,-531.58 611.23,-570.98 600.53,-591.56 631,-617.58 764.94,-731.94 864.81,-598.16 1023,-675.58 1053.94,-690.72 1047.25,-715.8 1079,-729.15 1186.19,-774.22 2008.81,-758.63 2125,-763.44 2495.57,-778.78 2943.87,-803.37 3076.37,-810.77"/>
<polygon fill="#666666" stroke="#666666" points="3076.15,-814.26 3086.33,-811.33 3076.54,-807.27 3076.15,-814.26"/>
</g>
<!-- OS4_Ergodicity&#45;&gt;ComplexTestFunction -->
<g id="edge158" class="edge">
<title>OS4_Ergodicity&#45;&gt;ComplexTestFunction</title>
<path fill="none" stroke="#666666" d="M2544.64,-221.98C2501.04,-237.79 2437.79,-263 2420,-282 2344.13,-363.02 2341.66,-463.08 2429,-531.58 2463.06,-558.29 2581.45,-536.93 2623,-549.08 2686.44,-567.62 2691.96,-597.71 2755,-617.58 2941.86,-676.47 3001.7,-628.97 3192,-675.58 3197.51,-676.93 3203.19,-678.56 3208.82,-680.33"/>
<polygon fill="#666666" stroke="#666666" points="3207.49,-683.58 3218.09,-683.42 3209.7,-676.94 3207.49,-683.58"/>
</g>
<!-- OS4_Ergodicity&#45;&gt;TimeTranslation -->
<g id="edge169" class="edge">
<title>OS4_Ergodicity&#45;&gt;TimeTranslation</title>
<path fill="none" stroke="#666666" d="M2544.39,-220.16C2539.55,-221.51 2534.68,-222.82 2530,-224 2410.16,-254.29 2360.62,-213.1 2258,-282 2156.13,-350.39 2064.69,-434.71 2140,-531.58 2142.97,-535.4 2473.24,-616.67 2478,-617.58 2697.66,-659.41 2962.84,-686.14 3076.65,-696.49"/>
<polygon fill="#666666" stroke="#666666" points="3076.05,-699.95 3086.33,-697.36 3076.68,-692.98 3076.05,-699.95"/>
</g>
<!-- OS4_Ergodicity&#45;&gt;Momentum -->
<g id="edge159" class="edge">
<title>OS4_Ergodicity&#45;&gt;Momentum</title>
<path fill="none" stroke="#666666" d="M2631.56,-209.24C2698.65,-212.66 2831.33,-219.27 2944,-224 3033.15,-227.74 4487.06,-217.78 4549,-282 4657.49,-394.48 4584.7,-549.56 4444,-617.58 4329.27,-673.03 4177.65,-692.15 4103.58,-698.44"/>
<polygon fill="#666666" stroke="#666666" points="4103.57,-694.93 4093.88,-699.23 4104.13,-701.91 4103.57,-694.93"/>
</g>
<!-- OS4_Ergodicity&#45;&gt;Defs -->
<g id="edge168" class="edge">
<title>OS4_Ergodicity&#45;&gt;Defs</title>
<path fill="none" stroke="#666666" d="M2544.43,-220.33C2539.58,-221.64 2534.7,-222.9 2530,-224 2386.3,-257.7 2323.14,-196.25 2203,-282 2065.41,-380.2 2137.32,-492.15 2024,-617.58 1998.86,-645.4 1962.57,-668.25 1935.39,-683.02"/>
<polygon fill="#666666" stroke="#666666" points="1934,-679.8 1926.8,-687.57 1937.28,-685.98 1934,-679.8"/>
</g>
<!-- OS4_Ergodicity&#45;&gt;Construct -->
<g id="edge161" class="edge">
<title>OS4_Ergodicity&#45;&gt;Construct</title>
<path fill="none" stroke="#666666" d="M2544.57,-221C2539.69,-222.19 2534.77,-223.23 2530,-224 2344.94,-253.82 1020.5,-218.89 844,-282 795.55,-299.32 774.81,-306.16 752,-352.29 731.8,-393.14 753.19,-445.96 770.28,-477.45"/>
<polygon fill="#666666" stroke="#666666" points="767.12,-478.97 775.1,-485.94 773.21,-475.52 767.12,-478.97"/>
</g>
<!-- OS4_Ergodicity&#45;&gt;IsGaussian -->
<g id="edge160" class="edge">
<title>OS4_Ergodicity&#45;&gt;IsGaussian</title>
<path fill="none" stroke="#666666" d="M2544.53,-220.82C2539.67,-222.04 2534.75,-223.14 2530,-224 2337.61,-258.82 908.12,-209.08 775,-352.29 751.61,-377.45 756.41,-400.69 775,-429.58 789.8,-452.57 808.73,-439.2 831,-455.08 840.45,-461.81 849.55,-470.65 857.19,-478.98"/>
<polygon fill="#666666" stroke="#666666" points="854.34,-481.04 863.57,-486.24 859.6,-476.42 854.34,-481.04"/>
</g>
<!-- OS4_Ergodicity&#45;&gt;Axioms -->
<g id="edge166" class="edge">
<title>OS4_Ergodicity&#45;&gt;Axioms</title>
<path fill="none" stroke="#666666" d="M2631.7,-222.9C2660.51,-235.26 2697.34,-254.88 2722,-282 2771.73,-336.68 2777.71,-429.31 2777.26,-475.94"/>
<polygon fill="#666666" stroke="#666666" points="2773.76,-475.69 2777.04,-485.77 2780.76,-475.85 2773.76,-475.69"/>
</g>
<!-- OS4_Ergodicity&#45;&gt;OS0_Analyticity -->
<g id="edge163" class="edge">
<title>OS4_Ergodicity&#45;&gt;OS0_Analyticity</title>
<path fill="none" stroke="#666666" d="M2580.01,-224.29C2565.45,-255.81 2534.29,-323.24 2514.85,-365.32"/>
<polygon fill="#666666" stroke="#666666" points="2511.71,-363.77 2510.69,-374.32 2518.06,-366.71 2511.71,-363.77"/>
</g>
<!-- OS4_Ergodicity&#45;&gt;OS2_Invariance -->
<g id="edge164" class="edge">
<title>OS4_Ergodicity&#45;&gt;OS2_Invariance</title>
<path fill="none" stroke="#666666" d="M2631.47,-214.58C2674.46,-224 2740.03,-243.72 2784,-282 2812.52,-306.83 2831.1,-347.12 2841.07,-374.03"/>
<polygon fill="#666666" stroke="#666666" points="2837.68,-374.97 2844.31,-383.23 2844.28,-372.64 2837.68,-374.97"/>
</g>
<!-- OS4_Ergodicity&#45;&gt;OS4_MGF -->
<g id="edge165" class="edge">
<title>OS4_Ergodicity&#45;&gt;OS4_MGF</title>
<path fill="none" stroke="#666666" d="M2565.24,-224.3C2546.48,-238.57 2519.66,-258.96 2498.78,-274.84"/>
<polygon fill="#666666" stroke="#666666" points="2496.7,-272.02 2490.86,-280.86 2500.94,-277.59 2496.7,-272.02"/>
</g>
<!-- Master -->
<g id="node46" class="node">
<title>Master</title>
<polygon fill="gold" stroke="black" stroke-width="2" points="3109,-36 3055,-36 3055,0 3109,0 3109,-36"/>
<text xml:space="preserve" text-anchor="middle" x="3082" y="-14.3" font-family="Times,serif" font-size="11.00">Master</text>
</g>
<!-- Master&#45;&gt;GaussianFreeField -->
<g id="edge170" class="edge">
<title>Master&#45;&gt;GaussianFreeField</title>
<path fill="none" stroke="#666666" d="M3054.17,-19.26C2962.3,-20.43 2660.55,-26.85 2414,-61.5 1826.22,-144.1 1130.1,-328.05 922.4,-384.79"/>
<polygon fill="#666666" stroke="#666666" points="921.61,-381.37 912.89,-387.39 923.46,-388.13 921.61,-381.37"/>
</g>
<!-- Master&#45;&gt;OS0_Analyticity -->
<g id="edge171" class="edge">
<title>Master&#45;&gt;OS0_Analyticity</title>
<path fill="none" stroke="#666666" d="M3087.09,-36.8C3101.18,-90.26 3134.13,-249.97 3047,-318 2965.33,-381.77 2680.89,-321.37 2582,-352.29 2567.71,-356.76 2553.27,-364.05 2540.48,-371.67"/>
<polygon fill="#666666" stroke="#666666" points="2538.99,-368.48 2532.34,-376.73 2542.68,-374.43 2538.99,-368.48"/>
</g>
<!-- Master&#45;&gt;OS1_Regularity -->
<g id="edge172" class="edge">
<title>Master&#45;&gt;OS1_Regularity</title>
<path fill="none" stroke="#666666" d="M3109.99,-19.07C3345.34,-19.75 4986.03,-25.75 5021,-61.5 5100.72,-142.99 5100.99,-236.77 5021,-318 4977.55,-362.12 2853.08,-342.11 2792,-352.29 2758.14,-357.93 2721.51,-369.68 2692.7,-380.31"/>
<polygon fill="#666666" stroke="#666666" points="2691.6,-376.98 2683.48,-383.78 2694.07,-383.54 2691.6,-376.98"/>
</g>
<!-- Master&#45;&gt;OS2_Invariance -->
<g id="edge173" class="edge">
<title>Master&#45;&gt;OS2_Invariance</title>
<path fill="none" stroke="#666666" d="M3109.71,-19.05C3348.01,-19.58 5043.9,-24.62 5080,-61.5 5159.75,-142.96 5159.96,-236.75 5080,-318 5038.3,-360.37 2997.46,-337.04 2940,-352.29 2920.02,-357.59 2899.68,-368.24 2883.4,-378.31"/>
<polygon fill="#666666" stroke="#666666" points="2881.63,-375.29 2875.1,-383.64 2885.41,-381.18 2881.63,-375.29"/>
</g>
<!-- Master&#45;&gt;OS3_ReflectionPositivity -->
<g id="edge174" class="edge">
<title>Master&#45;&gt;OS3_ReflectionPositivity</title>
<path fill="none" stroke="#666666" d="M3054.12,-33.29C3038.43,-41.41 3018.53,-51.86 3001,-61.5 2985.67,-69.93 2968.97,-79.46 2954.39,-87.9"/>
<polygon fill="#666666" stroke="#666666" points="2952.89,-84.72 2946,-92.77 2956.4,-90.78 2952.89,-84.72"/>
</g>
<!-- Master&#45;&gt;OS4_Clustering -->
<g id="edge175" class="edge">
<title>Master&#45;&gt;OS4_Clustering</title>
<path fill="none" stroke="#666666" d="M3064.28,-36.68C3057.11,-44.12 3048.91,-53.01 3042,-61.5 3018.53,-90.33 3025.85,-110.82 2994,-130 2815.96,-237.2 2733.49,-145.75 2530,-188 2528.82,-188.25 2527.63,-188.5 2526.43,-188.77"/>
<polygon fill="#666666" stroke="#666666" points="2525.87,-185.3 2516.98,-191.07 2527.53,-192.1 2525.87,-185.3"/>
</g>
<!-- Master&#45;&gt;OS4_Ergodicity -->
<g id="edge176" class="edge">
<title>Master&#45;&gt;OS4_Ergodicity</title>
<path fill="none" stroke="#666666" d="M3081.48,-36.68C3079.74,-61.54 3072.67,-106.41 3045,-130 2985.22,-180.95 2750.5,-197.82 2642.68,-202.95"/>
<polygon fill="#666666" stroke="#666666" points="2642.76,-199.44 2632.93,-203.39 2643.08,-206.43 2642.76,-199.44"/>
</g>
</g>
</svg>
